<svg width="105" height="50" viewBox="0 0 105 50" fill="none" xmlns="http://www.w3.org/2000/svg">
<path d="M6.30164 8.13385C6.30164 8.53257 6.2198 8.85155 6.05612 9.17053C5.89244 9.48951 5.72876 9.649 5.48324 9.88823C5.23772 10.0477 4.99221 10.2072 4.74669 10.3667C4.50117 10.4464 4.17381 10.5262 3.84645 10.5262V11.2439H2.45518V10.5262C2.04599 10.4464 1.63679 10.3667 1.30943 10.2072C0.982073 10.0477 0.736555 9.88823 0.572876 9.649C0.409197 9.40977 0.245518 9.17053 0.163679 8.85155C0.0818394 8.53257 0 8.21359 0 7.81487V4.86431C0 4.46559 0.0818394 4.14661 0.245518 3.82763C0.327358 3.58839 0.572876 3.34916 0.736555 3.18967C0.982073 2.95044 1.22759 2.87069 1.55495 2.7112C1.88231 2.55171 2.12783 2.55171 2.45518 2.55171V2.07324H3.92829V2.55171C4.25565 2.55171 4.50117 2.63146 4.82853 2.7112C5.07404 2.79095 5.31956 2.95044 5.56508 3.18967C5.8106 3.34916 5.97428 3.66814 6.13796 3.90737C6.30164 4.22635 6.38348 4.54533 6.38348 4.94406V8.13385H6.30164ZM2.45518 3.66814C2.12783 3.74788 1.88231 3.82763 1.63679 3.98712C1.47311 4.22635 1.39127 4.46559 1.39127 4.78457V8.29334C1.39127 8.45283 1.39127 8.61232 1.47311 8.77181C1.55495 8.9313 1.63679 9.01104 1.71863 9.09079C1.80047 9.17053 1.96415 9.25028 2.04599 9.33002C2.20966 9.40977 2.2915 9.40977 2.45518 9.40977V3.66814ZM4.9922 4.78457C4.9922 4.46559 4.91037 4.22635 4.66485 3.98712C4.50117 3.82763 4.25565 3.74788 3.92829 3.66814V9.33002C4.01013 9.33002 4.17381 9.25028 4.25565 9.25028C4.41933 9.17053 4.50117 9.09079 4.58301 9.01104C4.66485 8.9313 4.74669 8.85155 4.82853 8.69206C4.91037 8.53257 4.91037 8.45283 4.91037 8.29334V4.78457H4.9922Z" fill="url(#paint0_linear_850_55)"/>
<path d="M13.5854 8.85155C13.5854 9.649 13.4218 10.287 13.0126 10.6857C12.6034 11.0844 12.0305 11.3236 11.2939 11.3236C10.4756 11.3236 9.90267 11.1642 9.57532 10.7654C9.24796 10.3667 9.00244 9.80849 9.00244 9.09079V4.46559C9.00244 4.14661 9.08428 3.74788 9.16612 3.50865C9.24796 3.18967 9.41164 2.95044 9.57532 2.7112C9.739 2.47197 9.98451 2.31248 10.3119 2.23273C10.6392 2.15299 10.9666 2.07324 11.3758 2.07324C11.785 2.07324 12.1942 2.15299 12.4397 2.23273C12.6852 2.23273 12.9307 2.39222 13.0944 2.63146C13.2581 2.87069 13.4218 3.10993 13.5036 3.4289C13.5854 3.74788 13.5854 4.06686 13.5854 4.46559V8.85155ZM12.1123 4.3061C12.1123 4.06686 12.0305 3.82763 11.9487 3.58839C11.8668 3.34916 11.6213 3.26941 11.2939 3.26941C11.1303 3.26941 10.9666 3.26941 10.8847 3.34916C10.7211 3.50865 10.6392 3.58839 10.6392 3.74788C10.5574 3.82763 10.5574 3.98712 10.5574 4.14661C10.5574 4.3061 10.5574 4.38584 10.5574 4.54533V9.17053C10.5574 9.40977 10.6392 9.649 10.7211 9.80849C10.8029 9.96798 11.0484 10.1275 11.3758 10.1275C11.7031 10.1275 11.8668 10.0477 12.0305 9.80849C12.1942 9.649 12.1942 9.40977 12.1942 9.09079V4.3061H12.1123Z" fill="url(#paint1_linear_850_55)"/>
<path d="M19.4776 11.2439V7.25666H17.7589V11.2439H16.3677V2.07324H17.8408V5.90099H19.5594V2.07324H21.0325V11.2439H19.4776Z" fill="url(#paint2_linear_850_55)"/>
<path d="M24.4698 11.2442V12.9986H23.2422V10.0481L23.8151 9.96831C24.0606 9.72908 24.2243 9.4101 24.3061 9.09112C24.3879 8.77214 24.4698 8.29367 24.4698 7.73546L24.6335 2.15332H28.8891V10.0481H29.462V13.0784H28.2344V11.324H24.4698V11.2442ZM25.7792 7.65571C25.7792 8.21393 25.6974 8.61265 25.6974 9.01137C25.6155 9.4101 25.5337 9.72908 25.37 9.96831H27.416V3.42924H25.9429L25.7792 7.65571Z" fill="url(#paint3_linear_850_55)"/>
<path d="M38.3007 1.99316C38.7099 1.99316 39.0372 2.07291 39.2827 2.15265C39.5283 2.2324 39.7738 2.39189 40.0193 2.55138C40.183 2.71087 40.3467 2.9501 40.4285 3.18934C40.5103 3.42857 40.5922 3.74755 40.5922 4.06653L39.2009 4.38551C39.2009 4.06653 39.1191 3.74755 39.0372 3.58806C38.8736 3.34883 38.7099 3.26908 38.3825 3.26908C38.2188 3.26908 38.0552 3.26908 37.9733 3.34883C37.8915 3.42857 37.8096 3.50832 37.7278 3.58806C37.646 3.66781 37.646 3.8273 37.646 3.90704C37.646 4.06653 37.646 4.14627 37.646 4.30576V8.93096C37.646 9.01071 37.646 9.09045 37.646 9.24994C37.646 9.32969 37.7278 9.48918 37.7278 9.56892C37.8096 9.64867 37.8915 9.72841 37.9733 9.80816C38.0552 9.8879 38.2188 9.8879 38.3825 9.8879C38.9554 9.8879 39.2009 9.48918 39.2009 8.77147C39.4464 8.85122 39.6919 8.85122 39.9375 8.85122C40.183 8.85122 40.4285 8.93096 40.674 8.93096C40.674 9.64867 40.4285 10.2069 40.1011 10.6056C39.6919 11.0043 39.2009 11.2436 38.4644 11.2436C37.646 11.2436 37.0731 11.0841 36.7457 10.6853C36.3365 10.2866 36.1729 9.72841 36.1729 9.01071V4.46525C36.1729 4.14627 36.1729 3.8273 36.2547 3.50832C36.3365 3.18934 36.5002 2.9501 36.6639 2.71087C36.8276 2.47163 37.0731 2.31214 37.4004 2.15265C37.4823 2.07291 37.8096 1.99316 38.3007 1.99316Z" fill="url(#paint4_linear_850_55)"/>
<path d="M47.4668 8.85155C47.4668 9.649 47.3031 10.287 46.8939 10.6857C46.4847 11.0844 45.9118 11.3236 45.1753 11.3236C44.3569 11.3236 43.784 11.1642 43.4567 10.7654C43.1293 10.3667 42.8838 9.80849 42.8838 9.09079V4.46559C42.8838 4.14661 42.9656 3.74788 43.0475 3.50865C43.1293 3.18967 43.293 2.95044 43.4567 2.7112C43.6203 2.47197 43.8659 2.31248 44.1932 2.23273C44.5206 2.15299 44.8479 2.07324 45.2571 2.07324C45.6663 2.07324 46.0755 2.15299 46.321 2.23273C46.6484 2.31248 46.8121 2.47197 47.0576 2.7112C47.2213 2.95044 47.385 3.18967 47.4668 3.50865C47.4668 3.66814 47.4668 4.06686 47.4668 4.38584V8.85155ZM45.9937 4.3061C45.9937 4.06686 45.9118 3.82763 45.83 3.58839C45.7482 3.34916 45.5027 3.26941 45.1753 3.26941C45.0116 3.26941 44.8479 3.26941 44.7661 3.34916C44.6843 3.4289 44.6024 3.50865 44.5206 3.58839C44.4387 3.66814 44.4387 3.82763 44.3569 3.98712C44.3569 4.14661 44.3569 4.22635 44.3569 4.38584V9.01104C44.3569 9.25028 44.4387 9.48951 44.5206 9.649C44.6843 9.80849 44.8479 9.96798 45.1753 9.96798C45.5027 9.96798 45.6663 9.88823 45.83 9.649C45.9937 9.48951 45.9937 9.25028 45.9937 8.9313V4.3061Z" fill="url(#paint5_linear_850_55)"/>
<path d="M50.9043 11.2442V12.9986H49.6768V10.0481L50.2496 9.96831C50.4952 9.72908 50.6588 9.4101 50.7407 9.09112C50.8225 8.77214 50.9043 8.29367 50.9043 7.73546L51.068 2.15332H55.3237V10.0481H55.8966V13.0784H54.669V11.324H50.9043V11.2442ZM52.2138 7.65571C52.2138 8.21393 52.1319 8.61265 52.1319 9.01137C52.0501 9.4101 51.9683 9.72908 51.8046 9.96831H53.8506V3.42924H52.3775L52.2138 7.65571Z" fill="url(#paint6_linear_850_55)"/>
<path d="M58.2695 11.2439V2.07324H62.4433V3.4289H59.7426V5.90099H62.116V7.25666H59.7426V9.88823H62.4433V11.2439H58.2695Z" fill="url(#paint7_linear_850_55)"/>
<path d="M68.2543 5.50239L66.2902 11.244H64.8989V2.07337H66.2902V7.89474L68.2543 2.07337H69.6456V11.244H68.1725L68.2543 5.50239ZM66.4539 0C66.4539 0.0797448 66.4539 0.15949 66.5357 0.318979C66.6176 0.398724 66.6176 0.478469 66.6994 0.637959C66.7812 0.717703 66.8631 0.797448 66.9449 0.877193C67.0268 0.956938 67.1904 0.956938 67.2723 0.956938C67.4359 0.956938 67.5178 0.956938 67.5996 0.877193C67.6815 0.797448 67.7633 0.717703 67.8451 0.637959C67.927 0.558214 68.0088 0.478469 68.0088 0.318979C68.0088 0.239234 68.0907 0.15949 68.0907 0H69.1546C69.1546 0.15949 69.0727 0.398724 68.9909 0.637959C69.0727 0.797448 68.9091 1.03668 68.7454 1.19617C68.5817 1.35566 68.418 1.51515 68.1725 1.67464C67.927 1.75439 67.6815 1.83413 67.3541 1.83413C67.0268 1.83413 66.6994 1.75439 66.4539 1.67464C66.2084 1.5949 66.0447 1.43541 65.881 1.19617C65.7173 1.03668 65.6355 0.797448 65.5536 0.637959C65.4718 0.398724 65.39 0.15949 65.39 0H66.4539Z" fill="url(#paint8_linear_850_55)"/>
<path d="M74.7196 1.99316C75.1288 1.99316 75.4562 2.07291 75.7017 2.15265C75.9472 2.2324 76.1927 2.39189 76.4383 2.55138C76.6019 2.71087 76.7656 2.9501 76.8475 3.18934C76.9293 3.42857 77.0111 3.74755 77.0111 4.06653L75.6199 4.38551C75.6199 4.06653 75.538 3.74755 75.4562 3.58806C75.2925 3.34883 75.1288 3.26908 74.8015 3.26908C74.6378 3.26908 74.4741 3.26908 74.3923 3.34883C74.3104 3.42857 74.2286 3.50832 74.1467 3.58806C74.0649 3.66781 74.0649 3.8273 74.0649 3.90704C74.0649 4.06653 74.0649 4.14627 74.0649 4.30576V8.93096C74.0649 9.01071 74.0649 9.09045 74.0649 9.24994C74.0649 9.32969 74.1467 9.48918 74.1467 9.56892C74.2286 9.64867 74.3104 9.72841 74.3923 9.80816C74.4741 9.8879 74.6378 9.8879 74.8015 9.8879C75.3743 9.8879 75.6199 9.48918 75.6199 8.77147C75.8654 8.85122 76.1109 8.85122 76.3564 8.85122C76.6019 8.85122 76.8474 8.93096 77.093 8.93096C77.093 9.64867 76.8474 10.2069 76.5201 10.6056C76.1109 11.0043 75.6199 11.2436 74.8833 11.2436C74.0649 11.2436 73.492 11.0841 73.1647 10.6853C72.7555 10.2866 72.5918 9.72841 72.5918 9.01071V4.46525C72.5918 4.14627 72.5918 3.8273 72.6736 3.50832C72.7555 3.18934 72.9192 2.9501 73.0828 2.71087C73.2465 2.47163 73.492 2.31214 73.8194 2.15265C73.9012 2.07291 74.3104 1.99316 74.7196 1.99316Z" fill="url(#paint9_linear_850_55)"/>
<path d="M81.7576 3.4289V11.2439H80.2844V3.4289H78.7295V2.07324H83.2307V3.4289H81.7576Z" fill="url(#paint10_linear_850_55)"/>
<path d="M88.9595 6.45921C89.3687 6.6187 89.6961 6.85793 89.7779 7.17691C89.9416 7.57563 90.0234 7.97436 90.0234 8.45283C90.0234 9.40977 89.7779 10.1275 89.3687 10.5262C88.9595 11.0047 88.3048 11.1642 87.4046 11.1642H85.4404V2.07324H87.4864C88.3048 2.07324 88.9595 2.31248 89.2869 2.7112C89.6961 3.10992 89.8598 3.74788 89.8598 4.54533C89.8598 4.94406 89.7779 5.34278 89.6142 5.66176C89.6142 5.98074 89.2869 6.21997 88.9595 6.45921ZM88.5503 4.62508C88.5503 4.22635 88.4685 3.90737 88.3048 3.74788C88.1411 3.58839 87.8138 3.50865 87.4864 3.50865H86.9954V5.90099H87.4864C87.8956 5.90099 88.1411 5.82125 88.3048 5.58201C88.4685 5.26303 88.5503 4.94406 88.5503 4.62508ZM88.6322 8.29334C88.6322 7.89461 88.5503 7.57563 88.3866 7.3364C88.223 7.09717 87.9775 7.01742 87.5683 7.01742H86.9954V9.88823H87.5683C87.8138 9.88823 87.9774 9.80849 88.1411 9.72874C88.3048 9.649 88.3866 9.56926 88.4685 9.40977C88.5503 9.25028 88.6322 9.09079 88.6322 8.9313C88.6322 8.77181 88.6322 8.53257 88.6322 8.29334Z" fill="url(#paint11_linear_850_55)"/>
<path d="M96.1616 5.50227L94.1974 11.2439H92.8062V2.07324H94.1974V7.89461H94.2793L96.2434 2.07324H97.6347V11.2439H96.1616V5.50227Z" fill="url(#paint12_linear_850_55)"/>
<path d="M100.089 11.2442L100.58 8.37342C100.662 8.05444 100.744 7.8152 100.908 7.57597C101.071 7.33673 101.235 7.0975 101.481 7.01775C101.071 6.85826 100.744 6.53929 100.58 6.22031C100.417 5.90133 100.335 5.42286 100.335 4.94439C100.335 4.0672 100.58 3.34949 100.99 2.87102C101.399 2.39255 102.053 2.15332 102.872 2.15332H105V11.324H103.527V7.33673H103.117C102.872 7.33673 102.626 7.41648 102.381 7.65571C102.135 7.8152 102.053 8.21393 101.89 8.6924L101.481 11.2442H100.089ZM102.954 3.42924C102.545 3.42924 102.217 3.58873 102.053 3.82796C101.89 4.0672 101.808 4.38618 101.808 4.86464C101.808 5.34311 101.89 5.58235 102.135 5.82158C102.381 5.98107 102.626 6.06082 102.954 6.06082H103.527V3.42924H102.954Z" fill="url(#paint13_linear_850_55)"/>
<path d="M4.41942 18.8202L1.96423 25.9175H0.245605V14.5938H2.04607V21.7708H2.12791L4.5831 14.5938H6.38356V25.9175H4.50126L4.41942 18.8202Z" fill="url(#paint14_linear_850_55)"/>
<path d="M15.1404 25.9175V20.9733H13.0944V25.9175H11.2939V14.5938H13.0944V19.2987H15.2222V14.5938H17.0227V25.9175H15.1404Z" fill="url(#paint15_linear_850_55)"/>
<path d="M25.9429 25.9175V20.9733H23.8151V25.9175H22.0146V14.5938H23.8151V19.2987H25.9429V14.5938H27.7434V25.9175H25.9429Z" fill="url(#paint16_linear_850_55)"/>
<path d="M38.3828 23.0464C38.3828 24.0033 38.1372 24.8008 37.728 25.2792C37.237 25.7577 36.5823 25.9969 35.5184 25.9969C34.5363 25.9969 33.7998 25.7577 33.3906 25.2792C32.9814 24.8008 32.7358 24.083 32.7358 23.2059V17.544C32.7358 17.0655 32.8177 16.6668 32.8995 16.3478C32.9814 15.9491 33.145 15.6301 33.3906 15.3909C33.6361 15.1516 33.8816 14.9124 34.2908 14.7529C34.6181 14.5934 35.1092 14.5137 35.6002 14.5137C36.1731 14.5137 36.5823 14.5934 36.9915 14.7529C37.3188 14.9124 37.6462 15.0719 37.8917 15.3111C38.1372 15.5504 38.3009 15.8693 38.3828 16.2681C38.4646 16.6668 38.5464 17.0655 38.5464 17.544V23.0464H38.3828ZM36.5823 17.3845C36.5823 17.0655 36.5005 16.8263 36.3368 16.5073C36.1731 16.2681 35.9276 16.1086 35.5184 16.1086C35.2729 16.1086 35.1092 16.1883 35.0273 16.2681C34.8637 16.3478 34.7818 16.5073 34.7 16.587C34.6181 16.7465 34.5363 16.906 34.5363 17.0655C34.5363 17.225 34.4545 17.3845 34.4545 17.544V23.2856C34.4545 23.6046 34.5363 23.8438 34.7 24.083C34.8637 24.3223 35.1092 24.402 35.5184 24.402C35.9276 24.402 36.1731 24.2425 36.3368 24.0033C36.5005 23.7641 36.5823 23.4451 36.5823 23.1261V17.3845Z" fill="url(#paint17_linear_850_55)"/>
<path d="M47.6307 20.0164C48.1217 20.1759 48.5309 20.4949 48.6946 20.9733C48.8582 21.4518 49.0219 21.9303 49.0219 22.5682C49.0219 23.7644 48.7764 24.6416 48.2035 25.1998C47.7125 25.758 46.8941 25.9973 45.8302 25.9973H43.375V14.5938H45.912C46.9759 14.5938 47.7125 14.833 48.1217 15.3912C48.6127 15.9494 48.8582 16.6671 48.8582 17.7038C48.8582 18.262 48.7764 18.6607 48.6127 19.0595C48.449 19.4582 48.1217 19.7772 47.6307 19.9367V20.0164ZM47.1396 17.7038C47.1396 17.1456 47.0578 16.8266 46.8123 16.5874C46.5667 16.3481 46.2394 16.2684 45.7483 16.2684H45.1755V19.1392H45.7483C46.2394 19.1392 46.5667 18.9797 46.8123 18.7405C47.0578 18.581 47.1396 18.1823 47.1396 17.7038ZM47.2215 22.329C47.2215 21.7708 47.1396 21.3721 46.8941 21.1328C46.7304 20.8936 46.3212 20.7341 45.8302 20.7341H45.1755V24.2429H45.912C46.2394 24.2429 46.4031 24.1631 46.6486 24.0834C46.8123 24.0036 46.9759 23.8441 47.0578 23.6847C47.1396 23.5252 47.2215 23.2859 47.2215 23.0467C47.2215 22.8872 47.2215 22.648 47.2215 22.329Z" fill="url(#paint18_linear_850_55)"/>
<path d="M58.188 25.9175L57.697 23.5252H55.5691C55.4873 23.9239 55.4055 24.3226 55.3236 24.7213C55.2418 25.1201 55.1599 25.5188 55.0781 25.9175H53.1958C53.605 24.0036 54.0142 22.0898 54.3416 20.2556C54.7508 18.3418 55.1599 16.5076 55.4873 14.5938H57.5333L59.9066 25.9175H58.188ZM56.5512 17.2253C56.4694 18.0228 56.3057 18.8202 56.2239 19.5379C56.0602 20.3354 55.9783 21.1328 55.8147 21.9303H57.4514L56.7149 17.2253H56.5512Z" fill="url(#paint19_linear_850_55)"/>
<path d="M70.0544 14.5938V24.3226H70.791V28.1504H69.236V25.9973H64.3257V14.5938H66.1262V24.3226H68.1721V14.5938H70.0544Z" fill="url(#paint20_linear_850_55)"/>
<path d="M79.3022 18.8202L76.847 25.9175H75.1284V14.5938H76.9289V21.7708L79.3841 14.5938H81.1845V25.9175H79.3841L79.3022 18.8202Z" fill="url(#paint21_linear_850_55)"/>
<path d="M85.686 25.9175L86.3408 22.329C86.4226 21.9303 86.5044 21.6113 86.75 21.2923C86.9136 20.9733 87.1591 20.7341 87.4865 20.5746C86.9136 20.3354 86.5863 20.0164 86.3408 19.6177C86.1771 19.1392 86.0134 18.6607 86.0134 18.0228C86.0134 16.9064 86.2589 16.0292 86.8318 15.4709C87.4047 14.9127 88.1412 14.5938 89.1233 14.5938H91.824V25.9175H90.0235V21.0531H89.5325C89.2051 21.0531 88.9596 21.1328 88.6323 21.3721C88.3867 21.6113 88.1412 22.01 88.0594 22.648L87.4865 25.8378H85.686V25.9175ZM89.287 16.2684C88.7141 16.2684 88.3867 16.4279 88.1412 16.7469C87.8957 17.0658 87.8139 17.4646 87.8139 18.0228C87.8139 18.581 87.9775 18.9797 88.2231 19.1392C88.4686 19.3784 88.8778 19.4582 89.287 19.4582H90.0235V16.2684H89.287Z" fill="url(#paint22_linear_850_55)"/>
<path d="M100.253 23.4451L99.4348 21.3717L98.6982 19.3781H98.6164V25.9172H96.8159V14.5934H98.6164L99.9258 17.7832L100.826 20.2553H100.908L101.89 17.7035L103.118 14.5137H104.836V25.8374H103.036V19.2984H102.954L102.217 21.292L101.399 23.3653H100.253V23.4451Z" fill="url(#paint23_linear_850_55)"/>
<path d="M104.918 29.3457C79.6298 53.4286 29.0531 49.2819 10.7211 29.3457H0.245605C14.0765 43.62 33.9635 49.0427 50.6587 49.7604C52.3773 49.8401 54.0959 49.8401 55.7327 49.8401C66.5355 49.6806 78.5659 47.368 89.0414 41.9454C95.0157 38.9151 100.499 34.7684 104.918 29.3457Z" fill="url(#paint24_linear_850_55)"/>
<path d="M104.918 29.3457C104.918 29.4254 104.918 29.4254 104.918 29.3457C104.509 29.6647 104.1 29.9039 103.773 30.1432C76.1927 48.0857 37.8919 44.577 21.4422 29.3457H10.7212C29.0532 49.2819 79.63 53.5084 104.918 29.3457Z" fill="url(#paint25_linear_850_55)"/>
<path d="M98.862 31.8975C86.3406 36.6025 74.5557 38.6758 64.2439 38.7556C49.8402 38.8353 38.4645 35.0873 32.4084 29.3457H23.3242H21.4419C37.8098 44.4175 75.7014 48.006 103.199 30.4621C103.363 30.3824 103.609 30.2229 103.772 30.0634C104.182 29.8242 104.509 29.5849 104.918 29.3457C102.872 30.3026 100.826 31.1001 98.862 31.8975Z" fill="url(#paint26_linear_850_55)"/>
<path d="M32.4086 29.346C38.3829 34.9282 49.513 38.6762 63.6713 38.6762C63.8349 38.6762 64.0805 38.6762 64.2441 38.6762C74.5559 38.5964 86.3408 36.523 98.8622 31.8181C100.826 31.0207 102.872 30.2232 104.918 29.346C100.499 34.6889 95.0158 38.8356 88.9596 41.9457C78.4842 47.3683 66.4538 49.6809 55.651 49.8404C55.2418 49.8404 54.8326 49.8404 54.4234 49.8404C53.1958 49.8404 51.8864 49.8404 50.577 49.7607C33.8817 49.043 14.0766 43.6203 0.163871 29.346H10.5575H21.2784H23.1607H32.4086ZM32.4086 29.2663H23.3244H21.4421H10.7212H0.24571C0.163871 29.2663 0.163871 29.2663 0.0820312 29.346C0.0820312 29.4258 0.0820312 29.4258 0.0820312 29.5055C6.62919 36.1243 14.7313 41.3077 24.3065 44.8165C32.3268 47.7671 41.4928 49.5215 50.577 49.9202C51.8864 49.9999 53.114 49.9999 54.4234 49.9999C54.8326 49.9999 55.2418 49.9999 55.651 49.9999C61.3798 49.9202 67.0267 49.2822 72.4281 48.0063C78.4024 46.6506 83.9674 44.657 88.9596 42.1052C95.3431 38.7559 100.745 34.5294 104.918 29.4258C104.918 29.4258 104.918 29.4258 104.918 29.346C104.918 29.346 104.918 29.346 104.918 29.2663C104.918 29.2663 104.918 29.2663 104.918 29.1865C104.918 29.1865 104.918 29.1865 104.836 29.1865H104.755C102.791 30.0637 100.745 30.9409 98.6985 31.6586C87.0773 36.0446 75.1288 38.4369 64.1623 38.5167C63.9986 38.5167 63.7531 38.5167 63.5894 38.5167C50.0859 38.5167 38.7921 35.0876 32.4904 29.1865C32.4904 29.2663 32.4904 29.2663 32.4086 29.2663Z" fill="url(#paint27_linear_850_55)"/>
<defs>
<linearGradient id="paint0_linear_850_55" x1="3.19174" y1="2.07324" x2="3.19174" y2="11.2439" gradientUnits="userSpaceOnUse">
<stop offset="0.666667" stop-color="#E9ECEF"/>
<stop offset="1" stop-color="#E9ECEF" stop-opacity="0.5"/>
</linearGradient>
<linearGradient id="paint1_linear_850_55" x1="11.2939" y1="2.07324" x2="11.2939" y2="11.3236" gradientUnits="userSpaceOnUse">
<stop offset="0.666667" stop-color="#E9ECEF"/>
<stop offset="1" stop-color="#E9ECEF" stop-opacity="0.5"/>
</linearGradient>
<linearGradient id="paint2_linear_850_55" x1="18.7001" y1="2.07324" x2="18.7001" y2="11.2439" gradientUnits="userSpaceOnUse">
<stop offset="0.666667" stop-color="#E9ECEF"/>
<stop offset="1" stop-color="#E9ECEF" stop-opacity="0.5"/>
</linearGradient>
<linearGradient id="paint3_linear_850_55" x1="26.3521" y1="2.15332" x2="26.3521" y2="13.0784" gradientUnits="userSpaceOnUse">
<stop offset="0.666667" stop-color="#E9ECEF"/>
<stop offset="1" stop-color="#E9ECEF" stop-opacity="0.5"/>
</linearGradient>
<linearGradient id="paint4_linear_850_55" x1="38.4234" y1="1.99316" x2="38.4234" y2="11.2436" gradientUnits="userSpaceOnUse">
<stop offset="0.666667" stop-color="#E9ECEF"/>
<stop offset="1" stop-color="#E9ECEF" stop-opacity="0.5"/>
</linearGradient>
<linearGradient id="paint5_linear_850_55" x1="45.1753" y1="2.07324" x2="45.1753" y2="11.3236" gradientUnits="userSpaceOnUse">
<stop offset="0.666667" stop-color="#E9ECEF"/>
<stop offset="1" stop-color="#E9ECEF" stop-opacity="0.5"/>
</linearGradient>
<linearGradient id="paint6_linear_850_55" x1="52.7867" y1="2.15332" x2="52.7867" y2="13.0784" gradientUnits="userSpaceOnUse">
<stop offset="0.666667" stop-color="#E9ECEF"/>
<stop offset="1" stop-color="#E9ECEF" stop-opacity="0.5"/>
</linearGradient>
<linearGradient id="paint7_linear_850_55" x1="60.3564" y1="2.07324" x2="60.3564" y2="11.2439" gradientUnits="userSpaceOnUse">
<stop offset="0.666667" stop-color="#E9ECEF"/>
<stop offset="1" stop-color="#E9ECEF" stop-opacity="0.5"/>
</linearGradient>
<linearGradient id="paint8_linear_850_55" x1="67.2723" y1="0" x2="67.2723" y2="11.244" gradientUnits="userSpaceOnUse">
<stop offset="0.666667" stop-color="#E9ECEF"/>
<stop offset="1" stop-color="#E9ECEF" stop-opacity="0.5"/>
</linearGradient>
<linearGradient id="paint9_linear_850_55" x1="74.8424" y1="1.99316" x2="74.8424" y2="11.2436" gradientUnits="userSpaceOnUse">
<stop offset="0.666667" stop-color="#E9ECEF"/>
<stop offset="1" stop-color="#E9ECEF" stop-opacity="0.5"/>
</linearGradient>
<linearGradient id="paint10_linear_850_55" x1="80.9801" y1="2.07324" x2="80.9801" y2="11.2439" gradientUnits="userSpaceOnUse">
<stop offset="0.666667" stop-color="#E9ECEF"/>
<stop offset="1" stop-color="#E9ECEF" stop-opacity="0.5"/>
</linearGradient>
<linearGradient id="paint11_linear_850_55" x1="87.7319" y1="2.07324" x2="87.7319" y2="11.1642" gradientUnits="userSpaceOnUse">
<stop offset="0.666667" stop-color="#E9ECEF"/>
<stop offset="1" stop-color="#E9ECEF" stop-opacity="0.5"/>
</linearGradient>
<linearGradient id="paint12_linear_850_55" x1="95.2204" y1="2.07324" x2="95.2204" y2="11.2439" gradientUnits="userSpaceOnUse">
<stop offset="0.666667" stop-color="#E9ECEF"/>
<stop offset="1" stop-color="#E9ECEF" stop-opacity="0.5"/>
</linearGradient>
<linearGradient id="paint13_linear_850_55" x1="102.545" y1="2.15332" x2="102.545" y2="11.324" gradientUnits="userSpaceOnUse">
<stop offset="0.666667" stop-color="#E9ECEF"/>
<stop offset="1" stop-color="#E9ECEF" stop-opacity="0.5"/>
</linearGradient>
<linearGradient id="paint14_linear_850_55" x1="3.31458" y1="14.5938" x2="3.31458" y2="25.9175" gradientUnits="userSpaceOnUse">
<stop offset="0.666667" stop-color="#E9ECEF"/>
<stop offset="1" stop-color="#E9ECEF" stop-opacity="0.5"/>
</linearGradient>
<linearGradient id="paint15_linear_850_55" x1="14.1583" y1="14.5938" x2="14.1583" y2="25.9175" gradientUnits="userSpaceOnUse">
<stop offset="0.666667" stop-color="#E9ECEF"/>
<stop offset="1" stop-color="#E9ECEF" stop-opacity="0.5"/>
</linearGradient>
<linearGradient id="paint16_linear_850_55" x1="24.879" y1="14.5938" x2="24.879" y2="25.9175" gradientUnits="userSpaceOnUse">
<stop offset="0.666667" stop-color="#E9ECEF"/>
<stop offset="1" stop-color="#E9ECEF" stop-opacity="0.5"/>
</linearGradient>
<linearGradient id="paint17_linear_850_55" x1="35.6411" y1="14.5137" x2="35.6411" y2="25.9969" gradientUnits="userSpaceOnUse">
<stop offset="0.666667" stop-color="#E9ECEF"/>
<stop offset="1" stop-color="#E9ECEF" stop-opacity="0.5"/>
</linearGradient>
<linearGradient id="paint18_linear_850_55" x1="46.1985" y1="14.5938" x2="46.1985" y2="25.9973" gradientUnits="userSpaceOnUse">
<stop offset="0.666667" stop-color="#E9ECEF"/>
<stop offset="1" stop-color="#E9ECEF" stop-opacity="0.5"/>
</linearGradient>
<linearGradient id="paint19_linear_850_55" x1="56.5512" y1="14.5938" x2="56.5512" y2="25.9175" gradientUnits="userSpaceOnUse">
<stop offset="0.666667" stop-color="#E9ECEF"/>
<stop offset="1" stop-color="#E9ECEF" stop-opacity="0.5"/>
</linearGradient>
<linearGradient id="paint20_linear_850_55" x1="67.5583" y1="14.5938" x2="67.5583" y2="28.1504" gradientUnits="userSpaceOnUse">
<stop offset="0.666667" stop-color="#E9ECEF"/>
<stop offset="1" stop-color="#E9ECEF" stop-opacity="0.5"/>
</linearGradient>
<linearGradient id="paint21_linear_850_55" x1="78.1565" y1="14.5938" x2="78.1565" y2="25.9175" gradientUnits="userSpaceOnUse">
<stop offset="0.666667" stop-color="#E9ECEF"/>
<stop offset="1" stop-color="#E9ECEF" stop-opacity="0.5"/>
</linearGradient>
<linearGradient id="paint22_linear_850_55" x1="88.755" y1="14.5938" x2="88.755" y2="25.9175" gradientUnits="userSpaceOnUse">
<stop offset="0.666667" stop-color="#E9ECEF"/>
<stop offset="1" stop-color="#E9ECEF" stop-opacity="0.5"/>
</linearGradient>
<linearGradient id="paint23_linear_850_55" x1="100.826" y1="14.5137" x2="100.826" y2="25.9172" gradientUnits="userSpaceOnUse">
<stop offset="0.666667" stop-color="#E9ECEF"/>
<stop offset="1" stop-color="#E9ECEF" stop-opacity="0.5"/>
</linearGradient>
<linearGradient id="paint24_linear_850_55" x1="52.5819" y1="29.3457" x2="52.5819" y2="49.8401" gradientUnits="userSpaceOnUse">
<stop offset="0.666667" stop-color="#E9ECEF"/>
<stop offset="1" stop-color="#E9ECEF" stop-opacity="0.5"/>
</linearGradient>
<linearGradient id="paint25_linear_850_55" x1="57.8198" y1="29.3457" x2="57.8198" y2="45.9206" gradientUnits="userSpaceOnUse">
<stop offset="0.666667" stop-color="#E9ECEF"/>
<stop offset="1" stop-color="#E9ECEF" stop-opacity="0.5"/>
</linearGradient>
<linearGradient id="paint26_linear_850_55" x1="63.18" y1="29.3457" x2="63.18" y2="42.198" gradientUnits="userSpaceOnUse">
<stop offset="0.666667" stop-color="#E9ECEF"/>
<stop offset="1" stop-color="#E9ECEF" stop-opacity="0.5"/>
</linearGradient>
<linearGradient id="paint27_linear_850_55" x1="52.5002" y1="29.1865" x2="52.5002" y2="49.9999" gradientUnits="userSpaceOnUse">
<stop offset="0.666667" stop-color="#E9ECEF"/>
<stop offset="1" stop-color="#E9ECEF" stop-opacity="0.5"/>
</linearGradient>
</defs>
</svg>
