<svg width="105" height="50" viewBox="0 0 105 50" fill="none" xmlns="http://www.w3.org/2000/svg">
<path d="M6.30164 8.13397C6.30164 8.53269 6.2198 8.85167 6.05612 9.17065C5.89244 9.48963 5.72876 9.64912 5.48324 9.88836C5.23772 10.0478 4.99221 10.2073 4.74669 10.3668C4.50117 10.4466 4.17381 10.5263 3.84645 10.5263V11.244H2.45518V10.5263C2.04599 10.4466 1.63679 10.3668 1.30943 10.2073C0.982073 10.0478 0.736555 9.88836 0.572876 9.64912C0.409197 9.40989 0.245518 9.17065 0.163679 8.85167C0.0818394 8.53269 0 8.21372 0 7.81499V4.86443C0 4.46571 0.0818394 4.14673 0.245518 3.82775C0.327358 3.58852 0.572876 3.34928 0.736555 3.18979C0.982073 2.95056 1.22759 2.87081 1.55495 2.71132C1.88231 2.55183 2.12783 2.55183 2.45518 2.55183V2.07336H3.92829V2.55183C4.25565 2.55183 4.50117 2.63158 4.82853 2.71132C5.07404 2.79107 5.31956 2.95056 5.56508 3.18979C5.8106 3.34928 5.97428 3.66826 6.13796 3.9075C6.30164 4.22647 6.38348 4.54545 6.38348 4.94418V8.13397H6.30164ZM2.45518 3.66826C2.12783 3.74801 1.88231 3.82775 1.63679 3.98724C1.47311 4.22647 1.39127 4.46571 1.39127 4.78469V8.29346C1.39127 8.45295 1.39127 8.61244 1.47311 8.77193C1.55495 8.93142 1.63679 9.01116 1.71863 9.09091C1.80047 9.17065 1.96415 9.2504 2.04599 9.33014C2.20966 9.40989 2.2915 9.40989 2.45518 9.40989V3.66826ZM4.9922 4.78469C4.9922 4.46571 4.91037 4.22647 4.66485 3.98724C4.50117 3.82775 4.25565 3.74801 3.92829 3.66826V9.33014C4.01013 9.33014 4.17381 9.2504 4.25565 9.2504C4.41933 9.17065 4.50117 9.09091 4.58301 9.01116C4.66485 8.93142 4.74669 8.85167 4.82853 8.69218C4.91037 8.53269 4.91037 8.45295 4.91037 8.29346V4.78469H4.9922Z" fill="url(#paint0_linear_819_475)"/>
<path d="M13.5854 8.85167C13.5854 9.64912 13.4218 10.2871 13.0126 10.6858C12.6034 11.0845 12.0305 11.3238 11.2939 11.3238C10.4756 11.3238 9.90267 11.1643 9.57532 10.7655C9.24796 10.3668 9.00244 9.80861 9.00244 9.09091V4.46571C9.00244 4.14673 9.08428 3.74801 9.16612 3.50877C9.24796 3.18979 9.41164 2.95056 9.57532 2.71132C9.739 2.47209 9.98451 2.3126 10.3119 2.23285C10.6392 2.15311 10.9666 2.07336 11.3758 2.07336C11.785 2.07336 12.1942 2.15311 12.4397 2.23285C12.6852 2.23285 12.9307 2.39234 13.0944 2.63158C13.2581 2.87081 13.4218 3.11005 13.5036 3.42903C13.5854 3.74801 13.5854 4.06698 13.5854 4.46571V8.85167ZM12.1123 4.30622C12.1123 4.06698 12.0305 3.82775 11.9487 3.58852C11.8668 3.34928 11.6213 3.26954 11.2939 3.26954C11.1303 3.26954 10.9666 3.26954 10.8847 3.34928C10.7211 3.50877 10.6392 3.58852 10.6392 3.74801C10.5574 3.82775 10.5574 3.98724 10.5574 4.14673C10.5574 4.30622 10.5574 4.38596 10.5574 4.54545V9.17065C10.5574 9.40989 10.6392 9.64912 10.7211 9.80861C10.8029 9.9681 11.0484 10.1276 11.3758 10.1276C11.7031 10.1276 11.8668 10.0478 12.0305 9.80861C12.1942 9.64912 12.1942 9.40989 12.1942 9.09091V4.30622H12.1123Z" fill="url(#paint1_linear_819_475)"/>
<path d="M19.4776 11.244V7.25678H17.7589V11.244H16.3677V2.07336H17.8408V5.90112H19.5594V2.07336H21.0325V11.244H19.4776Z" fill="url(#paint2_linear_819_475)"/>
<path d="M24.4698 11.244V12.9984H23.2422V10.0478L23.8151 9.9681C24.0606 9.72886 24.2243 9.40988 24.3061 9.09091C24.3879 8.77193 24.4698 8.29346 24.4698 7.73524L24.6335 2.15311H28.8891V10.0478H29.462V13.0781H28.2344V11.3238H24.4698V11.244ZM25.7792 7.6555C25.7792 8.21371 25.6974 8.61244 25.6974 9.01116C25.6155 9.40989 25.5337 9.72886 25.37 9.9681H27.416V3.42902H25.9429L25.7792 7.6555Z" fill="url(#paint3_linear_819_475)"/>
<path d="M38.3007 1.99362C38.7099 1.99362 39.0372 2.07337 39.2827 2.15311C39.5283 2.23286 39.7738 2.39235 40.0193 2.55184C40.183 2.71133 40.3467 2.95056 40.4285 3.18979C40.5103 3.42903 40.5922 3.74801 40.5922 4.06699L39.2009 4.38597C39.2009 4.06699 39.1191 3.74801 39.0372 3.58852C38.8736 3.34928 38.7099 3.26954 38.3825 3.26954C38.2188 3.26954 38.0552 3.26954 37.9733 3.34928C37.8915 3.42903 37.8096 3.50877 37.7278 3.58852C37.646 3.66826 37.646 3.82775 37.646 3.9075C37.646 4.06699 37.646 4.14673 37.646 4.30622V8.93142C37.646 9.01117 37.646 9.09091 37.646 9.2504C37.646 9.33015 37.7278 9.48963 37.7278 9.56938C37.8096 9.64912 37.8915 9.72887 37.9733 9.80861C38.0552 9.88836 38.2188 9.88836 38.3825 9.88836C38.9554 9.88836 39.2009 9.48963 39.2009 8.77193C39.4464 8.85168 39.6919 8.85168 39.9375 8.85168C40.183 8.85168 40.4285 8.93142 40.674 8.93142C40.674 9.64912 40.4285 10.2073 40.1011 10.6061C39.6919 11.0048 39.2009 11.244 38.4644 11.244C37.646 11.244 37.0731 11.0845 36.7457 10.6858C36.3365 10.2871 36.1729 9.72887 36.1729 9.01117V4.46571C36.1729 4.14673 36.1729 3.82775 36.2547 3.50877C36.3365 3.18979 36.5002 2.95056 36.6639 2.71133C36.8276 2.47209 37.0731 2.3126 37.4004 2.15311C37.4823 2.07337 37.8096 1.99362 38.3007 1.99362Z" fill="url(#paint4_linear_819_475)"/>
<path d="M47.4668 8.85167C47.4668 9.64912 47.3031 10.2871 46.8939 10.6858C46.4847 11.0845 45.9118 11.3238 45.1753 11.3238C44.3569 11.3238 43.784 11.1643 43.4567 10.7655C43.1293 10.3668 42.8838 9.80861 42.8838 9.09091V4.46571C42.8838 4.14673 42.9656 3.74801 43.0475 3.50877C43.1293 3.18979 43.293 2.95056 43.4567 2.71132C43.6203 2.47209 43.8659 2.3126 44.1932 2.23285C44.5206 2.15311 44.8479 2.07336 45.2571 2.07336C45.6663 2.07336 46.0755 2.15311 46.321 2.23285C46.6484 2.3126 46.8121 2.47209 47.0576 2.71132C47.2213 2.95056 47.385 3.18979 47.4668 3.50877C47.4668 3.66826 47.4668 4.06698 47.4668 4.38596V8.85167ZM45.9937 4.30622C45.9937 4.06698 45.9118 3.82775 45.83 3.58852C45.7482 3.34928 45.5027 3.26954 45.1753 3.26954C45.0116 3.26954 44.8479 3.26954 44.7661 3.34928C44.6843 3.42903 44.6024 3.50877 44.5206 3.58852C44.4387 3.66826 44.4387 3.82775 44.3569 3.98724C44.3569 4.14673 44.3569 4.22647 44.3569 4.38596V9.01116C44.3569 9.2504 44.4387 9.48963 44.5206 9.64912C44.6843 9.80861 44.8479 9.9681 45.1753 9.9681C45.5027 9.9681 45.6663 9.88836 45.83 9.64912C45.9937 9.48963 45.9937 9.2504 45.9937 8.93142V4.30622Z" fill="url(#paint5_linear_819_475)"/>
<path d="M50.9041 11.244V12.9984H49.6765V10.0478L50.2494 9.9681C50.4949 9.72886 50.6586 9.40988 50.7404 9.09091C50.8223 8.77193 50.9041 8.29346 50.9041 7.73524L51.0678 2.15311H55.3234V10.0478H55.8963V13.0781H54.6687V11.3238H50.9041V11.244ZM52.2135 7.6555C52.2135 8.21371 52.1317 8.61244 52.1317 9.01116C52.0499 9.40989 51.968 9.72886 51.8043 9.9681H53.8503V3.42902H52.3772L52.2135 7.6555Z" fill="url(#paint6_linear_819_475)"/>
<path d="M58.2698 11.244V2.07336H62.4436V3.42903H59.7429V5.90112H62.1162V7.25678H59.7429V9.88836H62.4436V11.244H58.2698Z" fill="url(#paint7_linear_819_475)"/>
<path d="M68.2541 5.50239L66.2899 11.244H64.8987V2.07337H66.2899V7.89474L68.2541 2.07337H69.6454V11.244H68.1723L68.2541 5.50239ZM66.4536 0C66.4536 0.0797448 66.4536 0.15949 66.5355 0.318979C66.6173 0.398724 66.6173 0.478469 66.6991 0.637959C66.781 0.717703 66.8628 0.797448 66.9447 0.877193C67.0265 0.956938 67.1902 0.956938 67.272 0.956938C67.4357 0.956938 67.5175 0.956938 67.5994 0.877193C67.6812 0.797448 67.7631 0.717703 67.8449 0.637959C67.9267 0.558214 68.0086 0.478469 68.0086 0.318979C68.0086 0.239234 68.0904 0.15949 68.0904 0H69.1543C69.1543 0.15949 69.0725 0.398724 68.9907 0.637959C69.0725 0.797448 68.9088 1.03668 68.7451 1.19617C68.5815 1.35566 68.4178 1.51515 68.1723 1.67464C67.9267 1.75439 67.6812 1.83413 67.3539 1.83413C67.0265 1.83413 66.6991 1.75439 66.4536 1.67464C66.2081 1.5949 66.0444 1.43541 65.8808 1.19617C65.7171 1.03668 65.6352 0.797448 65.5534 0.637959C65.4716 0.398724 65.3897 0.15949 65.3897 0H66.4536Z" fill="url(#paint8_linear_819_475)"/>
<path d="M74.7194 1.99362C75.1286 1.99362 75.4559 2.07337 75.7015 2.15311C75.947 2.23286 76.1925 2.39235 76.438 2.55184C76.6017 2.71133 76.7654 2.95056 76.8472 3.18979C76.929 3.42903 77.0109 3.74801 77.0109 4.06699L75.6196 4.38597C75.6196 4.06699 75.5378 3.74801 75.4559 3.58852C75.2923 3.34928 75.1286 3.26954 74.8012 3.26954C74.6375 3.26954 74.4739 3.26954 74.392 3.34928C74.3102 3.42903 74.2283 3.50877 74.1465 3.58852C74.0647 3.66826 74.0647 3.82775 74.0647 3.9075C74.0647 4.06699 74.0647 4.14673 74.0647 4.30622V8.93142C74.0647 9.01117 74.0647 9.09091 74.0647 9.2504C74.0647 9.33015 74.1465 9.48963 74.1465 9.56938C74.2283 9.64912 74.3102 9.72887 74.392 9.80861C74.4739 9.88836 74.6375 9.88836 74.8012 9.88836C75.3741 9.88836 75.6196 9.48963 75.6196 8.77193C75.8651 8.85168 76.1107 8.85168 76.3562 8.85168C76.6017 8.85168 76.8472 8.93142 77.0927 8.93142C77.0927 9.64912 76.8472 10.2073 76.5198 10.6061C76.1107 11.0048 75.6196 11.244 74.8831 11.244C74.0647 11.244 73.4918 11.0845 73.1644 10.6858C72.7552 10.2871 72.5916 9.72887 72.5916 9.01117V4.46571C72.5916 4.14673 72.5916 3.82775 72.6734 3.50877C72.7552 3.18979 72.9189 2.95056 73.0826 2.71133C73.2463 2.47209 73.4918 2.3126 73.8191 2.15311C73.901 2.07337 74.3102 1.99362 74.7194 1.99362Z" fill="url(#paint9_linear_819_475)"/>
<path d="M81.7576 3.42903V11.244H80.2844V3.42903H78.7295V2.07336H83.2307V3.42903H81.7576Z" fill="url(#paint10_linear_819_475)"/>
<path d="M88.9595 6.45933C89.3687 6.61882 89.6961 6.85805 89.7779 7.17703C89.9416 7.57576 90.0234 7.97448 90.0234 8.45295C90.0234 9.40989 89.7779 10.1276 89.3687 10.5263C88.9595 11.0048 88.3048 11.1643 87.4046 11.1643H85.4404V2.07336H87.4864C88.3048 2.07336 88.9595 2.3126 89.2869 2.71132C89.6961 3.11005 89.8598 3.74801 89.8598 4.54545C89.8598 4.94418 89.7779 5.3429 89.6142 5.66188C89.6142 5.98086 89.2869 6.2201 88.9595 6.45933ZM88.5503 4.6252C88.5503 4.22647 88.4685 3.90749 88.3048 3.74801C88.1411 3.58852 87.8138 3.50877 87.4864 3.50877H86.9954V5.90112H87.4864C87.8956 5.90112 88.1411 5.82137 88.3048 5.58214C88.4685 5.26316 88.5503 4.94418 88.5503 4.6252ZM88.6322 8.29346C88.6322 7.89474 88.5503 7.57576 88.3866 7.33652C88.223 7.09729 87.9775 7.01754 87.5683 7.01754H86.9954V9.88836H87.5683C87.8138 9.88836 87.9774 9.80861 88.1411 9.72887C88.3048 9.64912 88.3866 9.56938 88.4685 9.40989C88.5503 9.2504 88.6322 9.09091 88.6322 8.93142C88.6322 8.77193 88.6322 8.53269 88.6322 8.29346Z" fill="url(#paint11_linear_819_475)"/>
<path d="M96.1613 5.50239L94.1972 11.244H92.8059V2.07336H94.1972V7.89474H94.279L96.2432 2.07336H97.6344V11.244H96.1613V5.50239Z" fill="url(#paint12_linear_819_475)"/>
<path d="M100.09 11.244L100.581 8.3732C100.662 8.05422 100.744 7.81499 100.908 7.57575C101.072 7.33652 101.235 7.09729 101.481 7.01754C101.072 6.85805 100.744 6.53907 100.581 6.22009C100.417 5.90111 100.335 5.42264 100.335 4.94418C100.335 4.06698 100.581 3.34928 100.99 2.87081C101.399 2.39234 102.054 2.15311 102.872 2.15311H105V11.3238H103.527V7.33652H103.118C102.872 7.33652 102.627 7.41627 102.381 7.6555C102.136 7.81499 102.054 8.21371 101.89 8.69218L101.481 11.244H100.09ZM102.954 3.42902C102.545 3.42902 102.217 3.58851 102.054 3.82775C101.89 4.06698 101.808 4.38596 101.808 4.86443C101.808 5.3429 101.89 5.58213 102.136 5.82137C102.381 5.98086 102.627 6.0606 102.954 6.0606H103.527V3.42902H102.954Z" fill="url(#paint13_linear_819_475)"/>
<path d="M4.41942 18.8198L1.96423 25.9171H0.245605V14.5933H2.04607V21.7703H2.12791L4.5831 14.5933H6.38356V25.9171H4.50126L4.41942 18.8198Z" fill="url(#paint14_linear_819_475)"/>
<path d="M15.1404 25.9171V20.9729H13.0944V25.9171H11.2939V14.5933H13.0944V19.2983H15.2222V14.5933H17.0227V25.9171H15.1404Z" fill="url(#paint15_linear_819_475)"/>
<path d="M25.9429 25.9171V20.9729H23.8151V25.9171H22.0146V14.5933H23.8151V19.2983H25.9429V14.5933H27.7434V25.9171H25.9429Z" fill="url(#paint16_linear_819_475)"/>
<path d="M38.3828 23.0462C38.3828 24.0032 38.1372 24.8006 37.728 25.2791C37.237 25.7576 36.5823 25.9968 35.5184 25.9968C34.5363 25.9968 33.7998 25.7576 33.3906 25.2791C32.9814 24.8006 32.7358 24.0829 32.7358 23.2057V17.5439C32.7358 17.0654 32.8177 16.6667 32.8995 16.3477C32.9814 15.949 33.145 15.63 33.3906 15.3907C33.6361 15.1515 33.8816 14.9123 34.2908 14.7528C34.6181 14.5933 35.1092 14.5135 35.6002 14.5135C36.1731 14.5135 36.5823 14.5933 36.9915 14.7528C37.3188 14.9123 37.6462 15.0718 37.8917 15.311C38.1372 15.5502 38.3009 15.8692 38.3828 16.2679C38.4646 16.6667 38.5464 17.0654 38.5464 17.5439V23.0462H38.3828ZM36.5823 17.3844C36.5823 17.0654 36.5005 16.8261 36.3368 16.5072C36.1731 16.2679 35.9276 16.1084 35.5184 16.1084C35.2729 16.1084 35.1092 16.1882 35.0273 16.2679C34.8637 16.3477 34.7818 16.5072 34.7 16.5869C34.6181 16.7464 34.5363 16.9059 34.5363 17.0654C34.5363 17.2249 34.4545 17.3844 34.4545 17.5439V23.2855C34.4545 23.6045 34.5363 23.8437 34.7 24.0829C34.8637 24.3222 35.1092 24.4019 35.5184 24.4019C35.9276 24.4019 36.1731 24.2424 36.3368 24.0032C36.5005 23.7639 36.5823 23.445 36.5823 23.126V17.3844Z" fill="url(#paint17_linear_819_475)"/>
<path d="M47.6304 20.016C48.1214 20.1754 48.5306 20.4944 48.6943 20.9729C48.858 21.4514 49.0217 21.9298 49.0217 22.5678C49.0217 23.764 48.7762 24.6412 48.2033 25.1994C47.7122 25.7576 46.8939 25.9968 45.8299 25.9968H43.3748V14.5933H45.9118C46.9757 14.5933 47.7122 14.8325 48.1214 15.3908C48.6125 15.949 48.858 16.6667 48.858 17.7034C48.858 18.2616 48.7762 18.6603 48.6125 19.059C48.4488 19.4577 48.1214 19.7767 47.6304 19.9362V20.016ZM47.1394 17.7034C47.1394 17.1451 47.0575 16.8262 46.812 16.5869C46.5665 16.3477 46.2391 16.2679 45.7481 16.2679H45.1752V19.1388H45.7481C46.2391 19.1388 46.5665 18.9793 46.812 18.74C47.0575 18.5805 47.1394 18.1818 47.1394 17.7034ZM47.2212 22.3286C47.2212 21.7703 47.1394 21.3716 46.8939 21.1324C46.7302 20.8931 46.321 20.7337 45.8299 20.7337H45.1752V24.2424H45.9118C46.2391 24.2424 46.4028 24.1627 46.6483 24.0829C46.812 24.0032 46.9757 23.8437 47.0575 23.6842C47.1394 23.5247 47.2212 23.2855 47.2212 23.0463C47.2212 22.8868 47.2212 22.6475 47.2212 22.3286Z" fill="url(#paint18_linear_819_475)"/>
<path d="M58.1878 25.9171L57.6967 23.5247H55.5689C55.4871 23.9235 55.4052 24.3222 55.3234 24.7209C55.2415 25.1196 55.1597 25.5183 55.0779 25.9171H53.1956C53.6048 24.0032 54.014 22.0893 54.3413 20.2552C54.7505 18.3413 55.1597 16.5072 55.4871 14.5933H57.533L59.9064 25.9171H58.1878ZM56.551 17.2249C56.4691 18.0223 56.3055 18.8198 56.2236 19.5375C56.0599 20.3349 55.9781 21.1324 55.8144 21.9298H57.4512L56.7147 17.2249H56.551Z" fill="url(#paint19_linear_819_475)"/>
<path d="M70.0547 14.5933V24.3222H70.7912V28.1499H69.2363V25.9968H64.3259V14.5933H66.1264V24.3222H68.1724V14.5933H70.0547Z" fill="url(#paint20_linear_819_475)"/>
<path d="M79.3022 18.8198L76.847 25.9171H75.1284V14.5933H76.9289V21.7703L79.3841 14.5933H81.1845V25.9171H79.3841L79.3022 18.8198Z" fill="url(#paint21_linear_819_475)"/>
<path d="M85.686 25.9171L86.3408 22.3286C86.4226 21.9298 86.5044 21.6109 86.75 21.2919C86.9136 20.9729 87.1591 20.7337 87.4865 20.5742C86.9136 20.3349 86.5863 20.016 86.3408 19.6172C86.1771 19.1388 86.0134 18.6603 86.0134 18.0223C86.0134 16.9059 86.2589 16.0287 86.8318 15.4705C87.4047 14.9123 88.1412 14.5933 89.1233 14.5933H91.824V25.9171H90.0235V21.0526H89.5325C89.2051 21.0526 88.9596 21.1324 88.6323 21.3716C88.3867 21.6109 88.1412 22.0096 88.0594 22.6475L87.4865 25.8373H85.686V25.9171ZM89.287 16.2679C88.7141 16.2679 88.3867 16.4274 88.1412 16.7464C87.8957 17.0654 87.8139 17.4641 87.8139 18.0223C87.8139 18.5805 87.9775 18.9793 88.2231 19.1388C88.4686 19.378 88.8778 19.4577 89.287 19.4577H90.0235V16.2679H89.287Z" fill="url(#paint22_linear_819_475)"/>
<path d="M100.253 23.445L99.435 21.3716L98.6985 19.378H98.6166V25.9171H96.8162V14.5933H98.6166L99.9261 17.7831L100.826 20.2552H100.908L101.89 17.7033L103.118 14.5135H104.836V25.8373H103.036V19.2982H102.954L102.218 21.2919L101.399 23.3652H100.253V23.445Z" fill="url(#paint23_linear_819_475)"/>
<path d="M104.918 29.3461C79.6298 53.429 29.0531 49.2823 10.7211 29.3461H0.245605C14.0765 43.6204 33.9635 49.043 50.6587 49.7607C52.3773 49.8405 54.0959 49.8405 55.7327 49.8405C66.5355 49.681 78.5659 47.3684 89.0414 41.9458C95.0157 38.9154 100.499 34.7687 104.918 29.3461Z" fill="url(#paint24_linear_819_475)"/>
<path d="M104.918 29.3461C104.918 29.4258 104.918 29.4258 104.918 29.3461C104.509 29.665 104.1 29.9043 103.773 30.1435C76.1927 48.0861 37.8919 44.5773 21.4422 29.3461H10.7212C29.0532 49.2823 79.63 53.5087 104.918 29.3461Z" fill="url(#paint25_linear_819_475)"/>
<path d="M98.862 31.8979C86.3406 36.6028 74.5557 38.6762 64.2439 38.756C49.8402 38.8357 38.4645 35.0877 32.4084 29.3461H23.3242H21.4419C37.8098 44.4178 75.7014 48.0064 103.199 30.4625C103.363 30.3828 103.609 30.2233 103.772 30.0638C104.182 29.8245 104.509 29.5853 104.918 29.3461C102.872 30.303 100.826 31.1005 98.862 31.8979Z" fill="url(#paint26_linear_819_475)"/>
<path d="M32.4086 29.3461C38.3829 34.9282 49.513 38.6763 63.6713 38.6763C63.8349 38.6763 64.0805 38.6763 64.2441 38.6763C74.5559 38.5965 86.3408 36.5231 98.8622 31.8182C100.826 31.0207 102.872 30.2233 104.918 29.3461C100.499 34.689 95.0158 38.8357 88.9596 41.9458C78.4842 47.3684 66.4538 49.681 55.651 49.8405C55.2418 49.8405 54.8326 49.8405 54.4234 49.8405C53.1958 49.8405 51.8864 49.8405 50.577 49.7608C33.8817 49.0431 14.0766 43.6204 0.163871 29.3461H10.5575H21.2784H23.1607H32.4086ZM32.4086 29.2664H23.3244H21.4421H10.7212H0.24571C0.163871 29.2664 0.163871 29.2664 0.0820312 29.3461C0.0820312 29.4259 0.0820312 29.4259 0.0820312 29.5056C6.62919 36.1244 14.7313 41.3078 24.3065 44.8166C32.3268 47.7672 41.4928 49.5215 50.577 49.9203C51.8864 50 53.114 50 54.4234 50C54.8326 50 55.2418 50 55.651 50C61.3798 49.9203 67.0267 49.2823 72.4281 48.0064C78.4024 46.6507 83.9674 44.6571 88.9596 42.1053C95.3431 38.756 100.745 34.5295 104.918 29.4259C104.918 29.4259 104.918 29.4259 104.918 29.3461C104.918 29.3461 104.918 29.3461 104.918 29.2664C104.918 29.2664 104.918 29.2664 104.918 29.1866C104.918 29.1866 104.918 29.1866 104.836 29.1866H104.755C102.791 30.0638 100.745 30.941 98.6985 31.6587C87.0773 36.0447 75.1288 38.437 64.1623 38.5168C63.9986 38.5168 63.7531 38.5168 63.5894 38.5168C50.0859 38.5168 38.7921 35.0877 32.4904 29.1866C32.4904 29.2664 32.4904 29.2664 32.4086 29.2664Z" fill="url(#paint27_linear_819_475)"/>
<defs>
<linearGradient id="paint0_linear_819_475" x1="3.19174" y1="2.07336" x2="3.19174" y2="11.244" gradientUnits="userSpaceOnUse">
<stop offset="0.666667" stop-color="#E9ECEF"/>
<stop offset="1" stop-color="#E9ECEF" stop-opacity="0.5"/>
</linearGradient>
<linearGradient id="paint1_linear_819_475" x1="11.2939" y1="2.07336" x2="11.2939" y2="11.3238" gradientUnits="userSpaceOnUse">
<stop offset="0.666667" stop-color="#E9ECEF"/>
<stop offset="1" stop-color="#E9ECEF" stop-opacity="0.5"/>
</linearGradient>
<linearGradient id="paint2_linear_819_475" x1="18.7001" y1="2.07336" x2="18.7001" y2="11.244" gradientUnits="userSpaceOnUse">
<stop offset="0.666667" stop-color="#E9ECEF"/>
<stop offset="1" stop-color="#E9ECEF" stop-opacity="0.5"/>
</linearGradient>
<linearGradient id="paint3_linear_819_475" x1="26.3521" y1="2.15311" x2="26.3521" y2="13.0781" gradientUnits="userSpaceOnUse">
<stop offset="0.666667" stop-color="#E9ECEF"/>
<stop offset="1" stop-color="#E9ECEF" stop-opacity="0.5"/>
</linearGradient>
<linearGradient id="paint4_linear_819_475" x1="38.4234" y1="1.99362" x2="38.4234" y2="11.244" gradientUnits="userSpaceOnUse">
<stop offset="0.666667" stop-color="#E9ECEF"/>
<stop offset="1" stop-color="#E9ECEF" stop-opacity="0.5"/>
</linearGradient>
<linearGradient id="paint5_linear_819_475" x1="45.1753" y1="2.07336" x2="45.1753" y2="11.3238" gradientUnits="userSpaceOnUse">
<stop offset="0.666667" stop-color="#E9ECEF"/>
<stop offset="1" stop-color="#E9ECEF" stop-opacity="0.5"/>
</linearGradient>
<linearGradient id="paint6_linear_819_475" x1="52.7864" y1="2.15311" x2="52.7864" y2="13.0781" gradientUnits="userSpaceOnUse">
<stop offset="0.666667" stop-color="#E9ECEF"/>
<stop offset="1" stop-color="#E9ECEF" stop-opacity="0.5"/>
</linearGradient>
<linearGradient id="paint7_linear_819_475" x1="60.3567" y1="2.07336" x2="60.3567" y2="11.244" gradientUnits="userSpaceOnUse">
<stop offset="0.666667" stop-color="#E9ECEF"/>
<stop offset="1" stop-color="#E9ECEF" stop-opacity="0.5"/>
</linearGradient>
<linearGradient id="paint8_linear_819_475" x1="67.272" y1="0" x2="67.272" y2="11.244" gradientUnits="userSpaceOnUse">
<stop offset="0.666667" stop-color="#E9ECEF"/>
<stop offset="1" stop-color="#E9ECEF" stop-opacity="0.5"/>
</linearGradient>
<linearGradient id="paint9_linear_819_475" x1="74.8421" y1="1.99362" x2="74.8421" y2="11.244" gradientUnits="userSpaceOnUse">
<stop offset="0.666667" stop-color="#E9ECEF"/>
<stop offset="1" stop-color="#E9ECEF" stop-opacity="0.5"/>
</linearGradient>
<linearGradient id="paint10_linear_819_475" x1="80.9801" y1="2.07336" x2="80.9801" y2="11.244" gradientUnits="userSpaceOnUse">
<stop offset="0.666667" stop-color="#E9ECEF"/>
<stop offset="1" stop-color="#E9ECEF" stop-opacity="0.5"/>
</linearGradient>
<linearGradient id="paint11_linear_819_475" x1="87.7319" y1="2.07336" x2="87.7319" y2="11.1643" gradientUnits="userSpaceOnUse">
<stop offset="0.666667" stop-color="#E9ECEF"/>
<stop offset="1" stop-color="#E9ECEF" stop-opacity="0.5"/>
</linearGradient>
<linearGradient id="paint12_linear_819_475" x1="95.2202" y1="2.07336" x2="95.2202" y2="11.244" gradientUnits="userSpaceOnUse">
<stop offset="0.666667" stop-color="#E9ECEF"/>
<stop offset="1" stop-color="#E9ECEF" stop-opacity="0.5"/>
</linearGradient>
<linearGradient id="paint13_linear_819_475" x1="102.545" y1="2.15311" x2="102.545" y2="11.3238" gradientUnits="userSpaceOnUse">
<stop offset="0.666667" stop-color="#E9ECEF"/>
<stop offset="1" stop-color="#E9ECEF" stop-opacity="0.5"/>
</linearGradient>
<linearGradient id="paint14_linear_819_475" x1="3.31458" y1="14.5933" x2="3.31458" y2="25.9171" gradientUnits="userSpaceOnUse">
<stop offset="0.666667" stop-color="#E9ECEF"/>
<stop offset="1" stop-color="#E9ECEF" stop-opacity="0.5"/>
</linearGradient>
<linearGradient id="paint15_linear_819_475" x1="14.1583" y1="14.5933" x2="14.1583" y2="25.9171" gradientUnits="userSpaceOnUse">
<stop offset="0.666667" stop-color="#E9ECEF"/>
<stop offset="1" stop-color="#E9ECEF" stop-opacity="0.5"/>
</linearGradient>
<linearGradient id="paint16_linear_819_475" x1="24.879" y1="14.5933" x2="24.879" y2="25.9171" gradientUnits="userSpaceOnUse">
<stop offset="0.666667" stop-color="#E9ECEF"/>
<stop offset="1" stop-color="#E9ECEF" stop-opacity="0.5"/>
</linearGradient>
<linearGradient id="paint17_linear_819_475" x1="35.6411" y1="14.5135" x2="35.6411" y2="25.9968" gradientUnits="userSpaceOnUse">
<stop offset="0.666667" stop-color="#E9ECEF"/>
<stop offset="1" stop-color="#E9ECEF" stop-opacity="0.5"/>
</linearGradient>
<linearGradient id="paint18_linear_819_475" x1="46.1982" y1="14.5933" x2="46.1982" y2="25.9968" gradientUnits="userSpaceOnUse">
<stop offset="0.666667" stop-color="#E9ECEF"/>
<stop offset="1" stop-color="#E9ECEF" stop-opacity="0.5"/>
</linearGradient>
<linearGradient id="paint19_linear_819_475" x1="56.551" y1="14.5933" x2="56.551" y2="25.9171" gradientUnits="userSpaceOnUse">
<stop offset="0.666667" stop-color="#E9ECEF"/>
<stop offset="1" stop-color="#E9ECEF" stop-opacity="0.5"/>
</linearGradient>
<linearGradient id="paint20_linear_819_475" x1="67.5586" y1="14.5933" x2="67.5586" y2="28.1499" gradientUnits="userSpaceOnUse">
<stop offset="0.666667" stop-color="#E9ECEF"/>
<stop offset="1" stop-color="#E9ECEF" stop-opacity="0.5"/>
</linearGradient>
<linearGradient id="paint21_linear_819_475" x1="78.1565" y1="14.5933" x2="78.1565" y2="25.9171" gradientUnits="userSpaceOnUse">
<stop offset="0.666667" stop-color="#E9ECEF"/>
<stop offset="1" stop-color="#E9ECEF" stop-opacity="0.5"/>
</linearGradient>
<linearGradient id="paint22_linear_819_475" x1="88.755" y1="14.5933" x2="88.755" y2="25.9171" gradientUnits="userSpaceOnUse">
<stop offset="0.666667" stop-color="#E9ECEF"/>
<stop offset="1" stop-color="#E9ECEF" stop-opacity="0.5"/>
</linearGradient>
<linearGradient id="paint23_linear_819_475" x1="100.826" y1="14.5135" x2="100.826" y2="25.9171" gradientUnits="userSpaceOnUse">
<stop offset="0.666667" stop-color="#E9ECEF"/>
<stop offset="1" stop-color="#E9ECEF" stop-opacity="0.5"/>
</linearGradient>
<linearGradient id="paint24_linear_819_475" x1="52.5819" y1="29.3461" x2="52.5819" y2="49.8405" gradientUnits="userSpaceOnUse">
<stop offset="0.666667" stop-color="#E9ECEF"/>
<stop offset="1" stop-color="#E9ECEF" stop-opacity="0.5"/>
</linearGradient>
<linearGradient id="paint25_linear_819_475" x1="57.8198" y1="29.3461" x2="57.8198" y2="45.921" gradientUnits="userSpaceOnUse">
<stop offset="0.666667" stop-color="#E9ECEF"/>
<stop offset="1" stop-color="#E9ECEF" stop-opacity="0.5"/>
</linearGradient>
<linearGradient id="paint26_linear_819_475" x1="63.18" y1="29.3461" x2="63.18" y2="42.1983" gradientUnits="userSpaceOnUse">
<stop offset="0.666667" stop-color="#E9ECEF"/>
<stop offset="1" stop-color="#E9ECEF" stop-opacity="0.5"/>
</linearGradient>
<linearGradient id="paint27_linear_819_475" x1="52.5002" y1="29.1866" x2="52.5002" y2="50" gradientUnits="userSpaceOnUse">
<stop offset="0.666667" stop-color="#E9ECEF"/>
<stop offset="1" stop-color="#E9ECEF" stop-opacity="0.5"/>
</linearGradient>
</defs>
</svg>
