<svg width="131" height="50" viewBox="0 0 131 50" fill="none" xmlns="http://www.w3.org/2000/svg">
<path d="M48.1714 7.42857C47.6166 6.37415 41.7611 3.44898 33.3168 1.54422C29.8344 5.62585 29.8344 7.25851 29.7727 7.93878C29.7111 8.61905 30.913 10.3537 32.1766 12.1225C34.4879 15.3878 35.1043 16 35.4433 16.9864C36.1213 18.8571 35.0119 23.0748 34.2106 26.9524C34.2106 26.9524 32.1457 18.7211 31.1904 13.381C31.1542 13.2508 31.1438 13.1137 31.1597 12.9787C31.1757 12.8438 31.2177 12.7142 31.2828 12.5986C26.0745 12.0544 22.5612 11.7823 21.9448 14.7755C19.541 14.7755 18.4623 15.5238 18.2158 15.966C17.5994 17.0884 18.3391 19.4014 18.7397 20.5578C19.0787 19.6395 21.2052 19.8095 21.914 19.8435C22.6228 19.8776 22.2222 20.0476 22.3146 20.2517V31.4082H16.1509L10.8193 47.0544C13.2848 48.3469 15.8736 49.3673 17.4761 49.3673C19.0787 49.3673 23.0543 47.0884 23.609 47.0544C24.1637 47.0204 28.1393 49.3673 29.7727 49.3673C31.4061 49.3673 33.9332 48.483 36.4295 47.0544L31.1287 31.4082H24.9958V20.8299C24.9034 20.1156 24.5952 19.8776 24.3795 19.8435H27.4921C27.0299 17.8367 26.4135 16.4422 25.5506 16.3401C25.7764 15.9932 26.0463 15.6839 26.3519 15.4218H23.948C24.1946 14.0272 27.3072 14.5374 28.6632 14.6395C30.0501 22.1565 32.6388 32.2245 32.7621 32.3946C32.8854 32.5646 35.0735 33.449 35.3509 33.483C36.6144 30.4898 38.5252 21.6463 38.6484 19.5034C40.251 20.1157 39.6038 22.4626 39.2648 24.7755C37.4465 36.9184 36.0289 40.5578 35.5974 42.8027C37.2 42.4286 38.1862 42.1225 38.3403 41.9184C38.4944 41.7143 39.3265 39.6054 39.9736 37.3265C40.8982 34.0272 42.4391 25.6599 42.3467 22.3946C42.3467 21.6122 41.7303 20.7959 40.6516 20.1837C40.9457 19.6444 41.2132 19.088 41.4529 18.517C41.7273 17.7609 41.9639 16.9888 42.1618 16.2041C42.7781 16.4082 43.3329 16.7143 43.4253 17.3946C43.7643 20.5918 43.5794 20.8639 43.2404 26.7483C43.1479 28.619 42.5316 32.3265 41.9152 36.2041C40.7749 43.3469 39.6963 46.3742 39.6963 47.4626C41.3913 46.8503 42.6857 46.4082 42.8089 46.1701C42.9322 45.932 44.2266 42.3946 45.1203 37.1905C45.4902 34.9796 45.7675 32.7687 46.1065 30.5238C46.5085 27.6546 46.694 24.7535 46.6613 21.8503C46.6613 18.0748 47.0619 18.0408 44.5348 16.5782C45.4902 13.483 45.3052 11.4762 45.0587 10.898C44.8121 10.3197 44.1033 9.80953 41.8536 9.97959C42.6549 10.7959 42.4083 12.4966 42.2234 13.483C41.7919 13.0748 41.946 12.3946 39.573 12.4966C39.2032 8.21089 38.4944 7.7347 38.4019 7.59864C38.3094 7.46259 36.0905 7.32653 35.4741 7.59864C35.9056 7.90476 36.7993 11.3061 36.3679 12.5986C36.0905 12.1905 32.7313 8.0068 32.9778 7.22449C33.2244 6.44218 33.3477 6.2381 34.4879 4.7415C38.4944 5.52381 45.3361 8.31293 45.7059 9.12925C46.2493 10.3119 46.6037 11.5891 46.7537 12.9048C47.1235 15.3878 47.8015 21.2721 47.4625 30.2517C47.1235 39.2313 46.0141 44.7755 46.0449 44.5034C47.3084 44.0612 49.3733 41.9864 49.5274 41.5102C50.0513 39.9796 50.3287 34.5374 50.5136 29.5374C50.6985 24.5374 50.2054 18.2449 49.9588 15.898C49.25 10.2177 48.8802 8.72109 48.1714 7.42857ZM17.507 46.102C16.305 46.102 14.3943 45.898 14.3943 45.898L17.507 36.034L20.3731 45.898C20.3423 45.898 18.6164 46.102 17.507 46.102ZM32.8854 45.898C32.8854 45.898 30.9746 46.102 29.7727 46.102C28.5708 46.102 26.9066 45.898 26.9066 45.898L29.7727 36.034L32.8854 45.898ZM24.965 38.2109V34.4354H27.6462L23.6398 46.7143L19.6642 34.4354H22.3146V37.1225C22.3109 37.1725 22.3172 37.2229 22.3332 37.27C22.3492 37.317 22.3744 37.3596 22.4071 37.3946L22.8386 37.5986L24.965 38.2109ZM25.304 18.2789H20.6813C20.3423 17.0884 20.6504 16.7823 21.6675 16.6803C23.5474 16.4762 25.1499 16.4762 25.304 18.2789ZM38.3094 12.9048C40.0045 12.5986 39.2032 15.898 38.7717 17.1905C38.2473 15.754 37.5305 14.4125 36.6452 13.2109C37.191 13.0566 37.7478 12.9542 38.3094 12.9048Z" fill="url(#paint0_linear_819_511)"/>
<path d="M8.44616 40.1156C9.24744 39.1973 12.0827 35.966 12.5142 34.2313C12.9457 32.4966 13.5004 27.1905 13.5004 26.068C13.5004 26.068 10.6959 28.1429 9.21662 29.8435C8.60025 30.5918 7.70651 31.8503 7.70651 31.8503C7.42915 30.0816 7.79897 28.0748 8.50779 26.8503C9.21662 25.6258 12.9148 21.9184 13.3771 20.5918C14.1168 18.483 13.9935 16.6122 14.6407 14.2993C12.3293 15.1156 9.49399 17.0884 8.13797 18.6871C7.95306 16.2041 8.66189 14.3673 10.2028 13.0748C12.3909 11.2381 15.257 10.1837 17.137 9.60544C19.0169 9.02721 21.3283 8.51701 22.6535 7.80272C25.0573 6.5102 27.3687 2.90476 27.8926 0.999999C27.1222 0.999999 24.2869 0.795917 21.5132 2.02041C20.527 2.46258 20.0339 3.48299 19.5716 4.29932C19.1094 5.11564 18.6163 5.86394 18.2156 6.47619C17.7334 7.3102 17.1068 8.03096 16.3717 8.59713C15.6366 9.1633 14.8075 9.56375 13.9319 9.77551C13.9935 9.60544 15.0721 8.89116 15.8734 6.98639C16.4862 5.37409 16.991 3.7143 17.3835 2.02041C15.8734 2.22449 14.9489 2.70068 13.3771 3.41496C11.8054 4.12925 11.189 4.91156 10.8192 5.62585C9.77135 7.53061 10.0179 12.8027 7.79897 14.8775C7.89142 12.0884 8.41534 9.09524 7.5216 5.62585C2.89883 7.63265 2.03591 9.40136 2.37491 11.6122C2.77555 14.4694 5.73413 15.7959 6.99769 18.1769C7.24834 18.7388 7.43469 19.3329 7.55242 19.9456C7.64488 19.9796 6.65868 21.3741 6.93605 24.0612C6.41234 22.9484 5.81489 21.8797 5.14858 20.8639C3.79256 18.9252 1.14217 15.898 1.14217 15.898C0.618258 23.6871 1.48118 25.1837 1.851 25.8639C2.71392 27.5306 6.04231 30.1156 6.75114 31.6122C7.09014 32.4286 7.1826 32.7347 7.1826 32.7007C7.1826 32.6667 6.50459 33.9932 6.65868 35.3197C6.6895 35.7959 6.81278 36.4082 6.90523 37.1224C6.18519 35.9807 5.41376 34.8796 4.59384 33.8231C3.3611 32.2585 0.957262 30.4218 0.957262 30.4218C0.803169 31.2721 1.20381 35.6259 1.29627 36.3061C1.60445 38.517 1.69691 40.5578 3.33029 42.3946C4.96367 44.2313 9.40153 46.102 10.3877 46.4762C10.223 45.6704 10.0173 44.8754 9.77135 44.0952C9.24744 42.4966 8.41534 40.1156 8.44616 40.1156ZM51.9927 5.86394H53.2871C54.1603 5.86732 55.0187 6.11295 55.7834 6.57823C56.2726 6.86168 56.6628 7.31626 56.8928 7.87075C57.1394 8.51701 57.2318 9.87755 57.2318 11.9524V38.1429C57.2318 40.5918 57.0161 42.1224 56.5847 42.7347C55.9067 43.7211 54.7972 44.1973 53.2871 44.1973H51.9927V45.3197H67.741V44.1973H66.4158C65.5518 44.1986 64.7023 43.9525 63.9503 43.483C63.4466 43.2101 63.0438 42.7535 62.81 42.1905C62.5634 41.5442 62.471 40.1837 62.471 38.1088V11.9184C62.471 9.46939 62.6867 7.93877 63.149 7.32653C63.6113 6.71428 64.9365 5.86394 66.4158 5.86394H67.741V4.7415H51.9927V5.86394ZM129.224 30.3537C128.526 28.8529 127.537 27.5405 126.327 26.5102C125.053 25.4218 122.711 23.8571 119.3 21.8163C115.078 19.3333 112.428 17.3265 111.318 15.8299C110.574 14.899 110.159 13.7038 110.147 12.4626C110.147 10.8639 110.764 9.40136 111.996 8.14286C113.264 6.86338 114.933 6.18001 116.65 6.23809C118.343 6.25268 120.005 6.73193 121.488 7.63265C122.977 8.52472 124.222 9.84004 125.094 11.4422C125.937 13.0522 126.522 15.195 126.851 17.8707H127.868V3.85714H126.851C126.666 4.80952 126.419 5.42177 126.142 5.72789C125.832 6.0431 125.423 6.21373 125.002 6.20408C124.57 6.20408 123.861 5.96599 122.844 5.45578C120.656 4.40136 118.591 3.85714 116.65 3.85714C113.537 3.85714 110.948 4.91156 108.914 7.02041C106.88 9.12925 105.863 11.6463 105.863 14.5374C105.849 16.1379 106.198 17.7168 106.88 19.1292C107.638 20.6251 108.666 21.9333 109.901 22.9728C111.226 24.1292 113.476 25.6939 116.619 27.6327C119.763 29.5714 121.673 30.8639 122.382 31.4422C123.329 32.2008 124.117 33.1752 124.694 34.2993C125.163 35.2256 125.417 36.2656 125.433 37.3265C125.433 39.1292 124.786 40.6599 123.461 41.9864C122.136 43.3129 120.379 43.9592 118.098 43.9592C116.222 43.9787 114.369 43.4881 112.705 42.5306C111.072 41.5782 109.839 40.3878 109.069 38.9252C108.298 37.4626 107.651 35.2857 107.158 32.3946H106.141V44.1973C104.889 43.9135 103.697 43.3711 102.628 42.5986C101.395 41.7143 99.8847 39.9456 98.1588 37.2925L90.5775 25.6599C93.6593 24.9116 95.9399 23.619 97.4192 21.7823C98.8758 20.0039 99.6685 17.6828 99.6381 15.2857C99.6846 13.0835 98.9933 10.9398 97.6965 9.2653C96.4724 7.61699 94.8307 6.40905 92.9813 5.79592C91.1322 5.18367 88.2661 4.84354 84.3521 4.84354H70.9769V5.96599H72.3637C73.7608 5.96599 74.8087 6.40816 75.5072 7.29252C76.0003 7.90476 76.2777 9.5034 76.2777 12.0544V38.2449C76.2777 40.5578 76.0928 42.0204 75.7229 42.6327C75.0449 43.7551 73.9355 44.2993 72.3945 44.2993H70.9769V45.4218H86.7252V44.2993H85.2767C83.8899 44.2993 82.8728 43.8571 82.1948 42.9728C81.5168 42.0884 81.4244 40.7619 81.4244 38.2109V26.3741H83.0269L85.2767 26.3061L97.7274 45.2857H107.343C107.412 44.9501 107.549 44.6362 107.743 44.3673C107.884 44.2127 108.053 44.0932 108.239 44.017C108.425 43.9407 108.624 43.9094 108.822 43.9252C109.284 43.9252 110.394 44.2313 112.181 44.8776C113.324 45.3071 114.486 45.6704 115.664 45.966C116.662 46.1465 117.672 46.2375 118.684 46.2381C122.074 46.2381 124.848 45.1156 127.005 42.9048C129.162 40.6939 130.241 38.0748 130.241 35.0136C130.244 33.3929 129.896 31.795 129.224 30.3537ZM82.9653 24.5034H81.4552V7.59864C82.8548 7.26901 84.2779 7.07552 85.7081 7.02041C88.0812 7.02041 89.9611 7.80272 91.4096 9.40136C92.858 11 93.5669 13.0408 93.5669 15.5918C93.59 16.8126 93.3606 18.0231 92.8959 19.1312C92.4313 20.2393 91.7438 21.2158 90.8857 21.9864C89.0982 23.6871 86.4786 24.5034 82.9653 24.5034Z" fill="url(#paint1_linear_819_511)"/>
<defs>
<linearGradient id="paint0_linear_819_511" x1="30.6867" y1="1.54422" x2="30.6867" y2="49.3673" gradientUnits="userSpaceOnUse">
<stop offset="0.666667" stop-color="#E9ECEF"/>
<stop offset="1" stop-color="#E9ECEF" stop-opacity="0.5"/>
</linearGradient>
<linearGradient id="paint1_linear_819_511" x1="65.5816" y1="0.987244" x2="65.5816" y2="46.4762" gradientUnits="userSpaceOnUse">
<stop offset="0.666667" stop-color="#E9ECEF"/>
<stop offset="1" stop-color="#E9ECEF" stop-opacity="0.5"/>
</linearGradient>
</defs>
</svg>
