<svg width="181" height="84" viewBox="0 0 181 84" fill="none" xmlns="http://www.w3.org/2000/svg">
<path d="M4.248 79V68.38H0.072V66.4H10.764V68.38H6.588V79H4.248ZM23.1761 66.4H25.5161V79H23.1761V66.4ZM16.6601 79H14.3201V66.4H16.6601V79ZM23.3561 73.6H16.4621V71.602H23.3561V73.6ZM32.8524 71.638H39.1164V73.564H32.8524V71.638ZM33.0324 77.038H40.1424V79H30.6924V66.4H39.8904V68.362H33.0324V77.038ZM44.551 79V66.4H49.735C50.851 66.4 51.805 66.58 52.597 66.94C53.401 67.3 54.019 67.816 54.451 68.488C54.883 69.16 55.099 69.958 55.099 70.882C55.099 71.806 54.883 72.604 54.451 73.276C54.019 73.936 53.401 74.446 52.597 74.806C51.805 75.154 50.851 75.328 49.735 75.328H45.847L46.891 74.266V79H44.551ZM52.795 79L49.609 74.428H52.111L55.315 79H52.795ZM46.891 74.518L45.847 73.402H49.627C50.659 73.402 51.433 73.18 51.949 72.736C52.477 72.292 52.741 71.674 52.741 70.882C52.741 70.078 52.477 69.46 51.949 69.028C51.433 68.596 50.659 68.38 49.627 68.38H45.847L46.891 67.228V74.518ZM59.517 79V66.4H61.443L66.951 75.598H65.943L71.361 66.4H73.287L73.305 79H71.091L71.073 69.874H71.541L66.933 77.56H65.889L61.209 69.874H61.749V79H59.517ZM76.7264 79L82.3964 66.4H84.7004L90.3884 79H87.9404L83.0624 67.642H83.9984L79.1384 79H76.7264ZM79.3364 76.084L79.9664 74.248H86.7704L87.4004 76.084H79.3364ZM93.7908 79V66.4H96.1308V77.02H102.719V79H93.7908ZM117.047 79.18C116.063 79.18 115.121 79.042 114.221 78.766C113.321 78.478 112.607 78.112 112.079 77.668L112.889 75.85C113.393 76.246 114.017 76.576 114.761 76.84C115.505 77.104 116.267 77.236 117.047 77.236C117.707 77.236 118.241 77.164 118.649 77.02C119.057 76.876 119.357 76.684 119.549 76.444C119.741 76.192 119.837 75.91 119.837 75.598C119.837 75.214 119.699 74.908 119.423 74.68C119.147 74.44 118.787 74.254 118.343 74.122C117.911 73.978 117.425 73.846 116.885 73.726C116.357 73.606 115.823 73.468 115.283 73.312C114.755 73.144 114.269 72.934 113.825 72.682C113.393 72.418 113.039 72.07 112.763 71.638C112.487 71.206 112.349 70.654 112.349 69.982C112.349 69.298 112.529 68.674 112.889 68.11C113.261 67.534 113.819 67.078 114.563 66.742C115.319 66.394 116.273 66.22 117.425 66.22C118.181 66.22 118.931 66.316 119.675 66.508C120.419 66.7 121.067 66.976 121.619 67.336L120.881 69.154C120.317 68.818 119.735 68.572 119.135 68.416C118.535 68.248 117.959 68.164 117.407 68.164C116.759 68.164 116.231 68.242 115.823 68.398C115.427 68.554 115.133 68.758 114.941 69.01C114.761 69.262 114.671 69.55 114.671 69.874C114.671 70.258 114.803 70.57 115.067 70.81C115.343 71.038 115.697 71.218 116.129 71.35C116.573 71.482 117.065 71.614 117.605 71.746C118.145 71.866 118.679 72.004 119.207 72.16C119.747 72.316 120.233 72.52 120.665 72.772C121.109 73.024 121.463 73.366 121.727 73.798C122.003 74.23 122.141 74.776 122.141 75.436C122.141 76.108 121.955 76.732 121.583 77.308C121.223 77.872 120.665 78.328 119.909 78.676C119.153 79.012 118.199 79.18 117.047 79.18ZM126.261 79V66.4H131.445C132.561 66.4 133.515 66.58 134.307 66.94C135.111 67.3 135.729 67.816 136.161 68.488C136.593 69.16 136.809 69.958 136.809 70.882C136.809 71.806 136.593 72.604 136.161 73.276C135.729 73.948 135.111 74.464 134.307 74.824C133.515 75.184 132.561 75.364 131.445 75.364H127.557L128.601 74.266V79H126.261ZM128.601 74.518L127.557 73.384H131.337C132.369 73.384 133.143 73.168 133.659 72.736C134.187 72.292 134.451 71.674 134.451 70.882C134.451 70.078 134.187 69.46 133.659 69.028C133.143 68.596 132.369 68.38 131.337 68.38H127.557L128.601 67.228V74.518ZM140.946 79V66.4H146.13C147.246 66.4 148.2 66.58 148.992 66.94C149.796 67.3 150.414 67.816 150.846 68.488C151.278 69.16 151.494 69.958 151.494 70.882C151.494 71.806 151.278 72.604 150.846 73.276C150.414 73.936 149.796 74.446 148.992 74.806C148.2 75.154 147.246 75.328 146.13 75.328H142.242L143.286 74.266V79H140.946ZM149.19 79L146.004 74.428H148.506L151.71 79H149.19ZM143.286 74.518L142.242 73.402H146.022C147.054 73.402 147.828 73.18 148.344 72.736C148.872 72.292 149.136 71.674 149.136 70.882C149.136 70.078 148.872 69.46 148.344 69.028C147.828 68.596 147.054 68.38 146.022 68.38H142.242L143.286 67.228V74.518ZM154.13 79L159.8 66.4H162.104L167.792 79H165.344L160.466 67.642H161.402L156.542 79H154.13ZM156.74 76.084L157.37 74.248H164.174L164.804 76.084H156.74ZM173.534 79V74.014L174.056 75.454L168.584 66.4H171.086L175.478 73.69H174.074L178.502 66.4H180.806L175.334 75.454L175.874 74.014V79H173.534Z" fill="white"/>
<g filter="url(#filter0_f_539_558)">
<path d="M15 57C13.8954 57 13 48.4934 13 38C13 27.5066 13.8954 19 15 19C16.1046 19 17 27.5066 17 38C17 48.4934 16.1046 57 15 57Z" fill="url(#paint0_linear_539_558)"/>
<path d="M21 39C21 48.9411 21.8954 57 23 57C24.1046 57 25 48.9411 25 39C25 29.0589 24.1046 21 23 21C21.8954 21 21 29.0589 21 39Z" fill="url(#paint1_linear_539_558)"/>
<path d="M89 39C89 48.9411 88.1046 57 87 57C85.8954 57 85 48.9411 85 39C85 29.0589 85.8954 21 87 21C88.1046 21 89 29.0589 89 39Z" fill="url(#paint2_linear_539_558)"/>
<path d="M78.75 57C79.7165 57 80.5 49.3888 80.5 40C80.5 30.6112 79.7165 23 78.75 23C77.7835 23 77 30.6112 77 40C77 49.3888 77.7835 57 78.75 57Z" fill="url(#paint3_linear_539_558)"/>
<path d="M72.5 41C72.5 49.8366 71.7165 57 70.75 57C69.7835 57 69 49.8366 69 41C69 32.1634 69.7835 25 70.75 25C71.7165 25 72.5 32.1634 72.5 41Z" fill="url(#paint4_linear_539_558)"/>
<path d="M62.75 57C63.7165 57 64.5 50.2843 64.5 42C64.5 33.7157 63.7165 27 62.75 27C61.7835 27 61 33.7157 61 42C61 50.2843 61.7835 57 62.75 57Z" fill="url(#paint5_linear_539_558)"/>
<path d="M54.75 57C55.7165 57 56.5 50.732 56.5 43C56.5 35.268 55.7165 29 54.75 29C53.7835 29 53 35.268 53 43C53 50.732 53.7835 57 54.75 57Z" fill="url(#paint6_linear_539_558)"/>
<path d="M46.75 57C45.7835 57 45 50.2843 45 42C45 33.7157 45.7835 27 46.75 27C47.7165 27 48.5 33.7157 48.5 42C48.5 50.2843 47.7165 57 46.75 57Z" fill="url(#paint7_linear_539_558)"/>
<path d="M37 41C37 49.8366 37.7835 57 38.75 57C39.7165 57 40.5 49.8366 40.5 41C40.5 32.1634 39.7165 25 38.75 25C37.7835 25 37 32.1634 37 41Z" fill="url(#paint8_linear_539_558)"/>
<path d="M31 57C29.8954 57 29 49.3888 29 40C29 30.6112 29.8954 23 31 23C32.1046 23 33 30.6112 33 40C33 49.3888 32.1046 57 31 57Z" fill="url(#paint9_linear_539_558)"/>
<path d="M167 57C168.105 57 169 44.464 169 29C169 13.536 168.105 1 167 1C165.895 1 165 13.536 165 29C165 44.464 165.895 57 167 57Z" fill="url(#paint10_linear_539_558)"/>
<path d="M159 57C160.105 57 161 44.9117 161 30C161 15.0883 160.105 3 159 3C157.895 3 157 15.0883 157 30C157 44.9117 157.895 57 159 57Z" fill="url(#paint11_linear_539_558)"/>
<path d="M95 57C96.1046 57 97 48.4934 97 38C97 27.5066 96.1046 19 95 19C93.8954 19 93 27.5066 93 38C93 48.4934 93.8954 57 95 57Z" fill="url(#paint12_linear_539_558)"/>
<path d="M105 37C105 48.0457 104.105 57 103 57C101.895 57 101 48.0457 101 37C101 25.9543 101.895 17 103 17C104.105 17 105 25.9543 105 37Z" fill="url(#paint13_linear_539_558)"/>
<path d="M111 57C112.105 57 113 47.598 113 36C113 24.402 112.105 15 111 15C109.895 15 109 24.402 109 36C109 47.598 109.895 57 111 57Z" fill="url(#paint14_linear_539_558)"/>
<path d="M121 35C121 47.1503 120.105 57 119 57C117.895 57 117 47.1503 117 35C117 22.8497 117.895 13 119 13C120.105 13 121 22.8497 121 35Z" fill="url(#paint15_linear_539_558)"/>
<path d="M127 57C128.105 57 129 46.7025 129 34C129 21.2975 128.105 11 127 11C125.895 11 125 21.2975 125 34C125 46.7025 125.895 57 127 57Z" fill="url(#paint16_linear_539_558)"/>
<path d="M137 33C137 46.2548 136.105 57 135 57C133.895 57 133 46.2548 133 33C133 19.7452 133.895 9 135 9C136.105 9 137 19.7452 137 33Z" fill="url(#paint17_linear_539_558)"/>
<path d="M143 57C144.105 57 145 45.8071 145 32C145 18.1929 144.105 7 143 7C141.895 7 141 18.1929 141 32C141 45.8071 141.895 57 143 57Z" fill="url(#paint18_linear_539_558)"/>
<path d="M153 31C153 45.3594 152.105 57 151 57C149.895 57 149 45.3594 149 31C149 16.6406 149.895 5 151 5C152.105 5 153 16.6406 153 31Z" fill="url(#paint19_linear_539_558)"/>
</g>
<defs>
<filter id="filter0_f_539_558" x="12.5" y="0.5" width="157" height="57" filterUnits="userSpaceOnUse" color-interpolation-filters="sRGB">
<feFlood flood-opacity="0" result="BackgroundImageFix"/>
<feBlend mode="normal" in="SourceGraphic" in2="BackgroundImageFix" result="shape"/>
<feGaussianBlur stdDeviation="0.25" result="effect1_foregroundBlur_539_558"/>
</filter>
<linearGradient id="paint0_linear_539_558" x1="72" y1="16.5" x2="72.3283" y2="56.8144" gradientUnits="userSpaceOnUse">
<stop offset="0.209247" stop-color="#1089FF"/>
<stop offset="0.439294" stop-color="#BBF96C"/>
<stop offset="0.540828" stop-color="#FFE80C"/>
<stop offset="0.886904" stop-color="#E84D22"/>
<stop offset="1" stop-color="#EC2023"/>
</linearGradient>
<linearGradient id="paint1_linear_539_558" x1="72" y1="16.5" x2="72.3283" y2="56.8144" gradientUnits="userSpaceOnUse">
<stop offset="0.209247" stop-color="#1089FF"/>
<stop offset="0.439294" stop-color="#BBF96C"/>
<stop offset="0.540828" stop-color="#FFE80C"/>
<stop offset="0.886904" stop-color="#E84D22"/>
<stop offset="1" stop-color="#EC2023"/>
</linearGradient>
<linearGradient id="paint2_linear_539_558" x1="72" y1="16.5" x2="72.3283" y2="56.8144" gradientUnits="userSpaceOnUse">
<stop offset="0.209247" stop-color="#1089FF"/>
<stop offset="0.439294" stop-color="#BBF96C"/>
<stop offset="0.540828" stop-color="#FFE80C"/>
<stop offset="0.886904" stop-color="#E84D22"/>
<stop offset="1" stop-color="#EC2023"/>
</linearGradient>
<linearGradient id="paint3_linear_539_558" x1="72" y1="16.5" x2="72.3283" y2="56.8144" gradientUnits="userSpaceOnUse">
<stop offset="0.209247" stop-color="#1089FF"/>
<stop offset="0.439294" stop-color="#BBF96C"/>
<stop offset="0.540828" stop-color="#FFE80C"/>
<stop offset="0.886904" stop-color="#E84D22"/>
<stop offset="1" stop-color="#EC2023"/>
</linearGradient>
<linearGradient id="paint4_linear_539_558" x1="72" y1="16.5" x2="72.3283" y2="56.8144" gradientUnits="userSpaceOnUse">
<stop offset="0.209247" stop-color="#1089FF"/>
<stop offset="0.439294" stop-color="#BBF96C"/>
<stop offset="0.540828" stop-color="#FFE80C"/>
<stop offset="0.886904" stop-color="#E84D22"/>
<stop offset="1" stop-color="#EC2023"/>
</linearGradient>
<linearGradient id="paint5_linear_539_558" x1="72" y1="16.5" x2="72.3283" y2="56.8144" gradientUnits="userSpaceOnUse">
<stop offset="0.209247" stop-color="#1089FF"/>
<stop offset="0.439294" stop-color="#BBF96C"/>
<stop offset="0.540828" stop-color="#FFE80C"/>
<stop offset="0.886904" stop-color="#E84D22"/>
<stop offset="1" stop-color="#EC2023"/>
</linearGradient>
<linearGradient id="paint6_linear_539_558" x1="72" y1="16.5" x2="72.3283" y2="56.8144" gradientUnits="userSpaceOnUse">
<stop offset="0.209247" stop-color="#1089FF"/>
<stop offset="0.439294" stop-color="#BBF96C"/>
<stop offset="0.540828" stop-color="#FFE80C"/>
<stop offset="0.886904" stop-color="#E84D22"/>
<stop offset="1" stop-color="#EC2023"/>
</linearGradient>
<linearGradient id="paint7_linear_539_558" x1="72" y1="16.5" x2="72.3283" y2="56.8144" gradientUnits="userSpaceOnUse">
<stop offset="0.209247" stop-color="#1089FF"/>
<stop offset="0.439294" stop-color="#BBF96C"/>
<stop offset="0.540828" stop-color="#FFE80C"/>
<stop offset="0.886904" stop-color="#E84D22"/>
<stop offset="1" stop-color="#EC2023"/>
</linearGradient>
<linearGradient id="paint8_linear_539_558" x1="72" y1="16.5" x2="72.3283" y2="56.8144" gradientUnits="userSpaceOnUse">
<stop offset="0.209247" stop-color="#1089FF"/>
<stop offset="0.439294" stop-color="#BBF96C"/>
<stop offset="0.540828" stop-color="#FFE80C"/>
<stop offset="0.886904" stop-color="#E84D22"/>
<stop offset="1" stop-color="#EC2023"/>
</linearGradient>
<linearGradient id="paint9_linear_539_558" x1="72" y1="16.5" x2="72.3283" y2="56.8144" gradientUnits="userSpaceOnUse">
<stop offset="0.209247" stop-color="#1089FF"/>
<stop offset="0.439294" stop-color="#BBF96C"/>
<stop offset="0.540828" stop-color="#FFE80C"/>
<stop offset="0.886904" stop-color="#E84D22"/>
<stop offset="1" stop-color="#EC2023"/>
</linearGradient>
<linearGradient id="paint10_linear_539_558" x1="144" y1="5" x2="150.214" y2="54.3994" gradientUnits="userSpaceOnUse">
<stop offset="0.209247" stop-color="#1089FF"/>
<stop offset="0.439294" stop-color="#BBF96C"/>
<stop offset="0.540828" stop-color="#FFE80C"/>
<stop offset="0.886904" stop-color="#E84D22"/>
<stop offset="1" stop-color="#EC2023"/>
</linearGradient>
<linearGradient id="paint11_linear_539_558" x1="144" y1="5" x2="150.214" y2="54.3994" gradientUnits="userSpaceOnUse">
<stop offset="0.209247" stop-color="#1089FF"/>
<stop offset="0.439294" stop-color="#BBF96C"/>
<stop offset="0.540828" stop-color="#FFE80C"/>
<stop offset="0.886904" stop-color="#E84D22"/>
<stop offset="1" stop-color="#EC2023"/>
</linearGradient>
<linearGradient id="paint12_linear_539_558" x1="144" y1="5" x2="150.214" y2="54.3994" gradientUnits="userSpaceOnUse">
<stop offset="0.209247" stop-color="#1089FF"/>
<stop offset="0.439294" stop-color="#BBF96C"/>
<stop offset="0.540828" stop-color="#FFE80C"/>
<stop offset="0.886904" stop-color="#E84D22"/>
<stop offset="1" stop-color="#EC2023"/>
</linearGradient>
<linearGradient id="paint13_linear_539_558" x1="144" y1="5" x2="150.214" y2="54.3994" gradientUnits="userSpaceOnUse">
<stop offset="0.209247" stop-color="#1089FF"/>
<stop offset="0.439294" stop-color="#BBF96C"/>
<stop offset="0.540828" stop-color="#FFE80C"/>
<stop offset="0.886904" stop-color="#E84D22"/>
<stop offset="1" stop-color="#EC2023"/>
</linearGradient>
<linearGradient id="paint14_linear_539_558" x1="144" y1="5" x2="150.214" y2="54.3994" gradientUnits="userSpaceOnUse">
<stop offset="0.209247" stop-color="#1089FF"/>
<stop offset="0.439294" stop-color="#BBF96C"/>
<stop offset="0.540828" stop-color="#FFE80C"/>
<stop offset="0.886904" stop-color="#E84D22"/>
<stop offset="1" stop-color="#EC2023"/>
</linearGradient>
<linearGradient id="paint15_linear_539_558" x1="144" y1="5" x2="150.214" y2="54.3994" gradientUnits="userSpaceOnUse">
<stop offset="0.209247" stop-color="#1089FF"/>
<stop offset="0.439294" stop-color="#BBF96C"/>
<stop offset="0.540828" stop-color="#FFE80C"/>
<stop offset="0.886904" stop-color="#E84D22"/>
<stop offset="1" stop-color="#EC2023"/>
</linearGradient>
<linearGradient id="paint16_linear_539_558" x1="144" y1="5" x2="150.214" y2="54.3994" gradientUnits="userSpaceOnUse">
<stop offset="0.209247" stop-color="#1089FF"/>
<stop offset="0.439294" stop-color="#BBF96C"/>
<stop offset="0.540828" stop-color="#FFE80C"/>
<stop offset="0.886904" stop-color="#E84D22"/>
<stop offset="1" stop-color="#EC2023"/>
</linearGradient>
<linearGradient id="paint17_linear_539_558" x1="144" y1="5" x2="150.214" y2="54.3994" gradientUnits="userSpaceOnUse">
<stop offset="0.209247" stop-color="#1089FF"/>
<stop offset="0.439294" stop-color="#BBF96C"/>
<stop offset="0.540828" stop-color="#FFE80C"/>
<stop offset="0.886904" stop-color="#E84D22"/>
<stop offset="1" stop-color="#EC2023"/>
</linearGradient>
<linearGradient id="paint18_linear_539_558" x1="144" y1="5" x2="150.214" y2="54.3994" gradientUnits="userSpaceOnUse">
<stop offset="0.209247" stop-color="#1089FF"/>
<stop offset="0.439294" stop-color="#BBF96C"/>
<stop offset="0.540828" stop-color="#FFE80C"/>
<stop offset="0.886904" stop-color="#E84D22"/>
<stop offset="1" stop-color="#EC2023"/>
</linearGradient>
<linearGradient id="paint19_linear_539_558" x1="144" y1="5" x2="150.214" y2="54.3994" gradientUnits="userSpaceOnUse">
<stop offset="0.209247" stop-color="#1089FF"/>
<stop offset="0.439294" stop-color="#BBF96C"/>
<stop offset="0.540828" stop-color="#FFE80C"/>
<stop offset="0.886904" stop-color="#E84D22"/>
<stop offset="1" stop-color="#EC2023"/>
</linearGradient>
</defs>
</svg>
